<?xml version="1.0" encoding="UTF-8"?>
<svg version="1.1" xmlns="http://www.w3.org/2000/svg" width="512" height="512">
<path d="M0 0 C5.4521357 2.53134872 6.4759981 4.71399714 10 10 C10 16.93 10 23.86 10 31 C68.08 31 126.16 31 186 31 C186 24.07 186 17.14 186 10 C191.17241379 2.24137931 191.17241379 2.24137931 196 0 C201.5997712 -0.75381535 206.33499991 -0.77303575 211.5 1.625 C215.89818117 5.80327211 218.23208389 9.03511857 218.390625 15.1796875 C218.36425232 17.07852048 218.31686153 18.9771613 218.25 20.875 C218.23195313 21.84953125 218.21390625 22.8240625 218.1953125 23.828125 C218.14841734 26.21977807 218.08280907 28.60936597 218 31 C218.95664551 30.98428955 219.91329102 30.9685791 220.89892578 30.95239258 C224.51830298 30.8972459 228.13764487 30.86334897 231.75732422 30.83520508 C233.31077358 30.82030811 234.86418235 30.79998349 236.41748047 30.77368164 C260.73499323 30.37284352 281.45686774 37.02394502 299.21484375 54.1953125 C305.43248002 60.45655071 310.19320334 66.87353496 314.25 74.6875 C314.72614746 75.58505005 314.72614746 75.58505005 315.21191406 76.50073242 C322.98454994 92.2850679 322.57439646 108.23763783 322.51757812 125.44335938 C322.52080766 128.20938916 322.5299885 130.97539249 322.53881836 133.7414093 C322.55650909 140.44411516 322.5528061 147.14664081 322.5411678 153.84935343 C322.53209625 159.30178012 322.53092546 164.75415666 322.53526306 170.20658875 C322.53587599 170.98565278 322.53648893 171.76471682 322.53712043 172.56738886 C322.53839947 174.1505509 322.53969632 175.73371292 322.5410108 177.31687492 C322.55238892 192.12639273 322.53934652 206.93581113 322.51780933 221.74531263 C322.49994086 234.42417091 322.50304575 247.10288264 322.52148438 259.78173828 C322.54294019 274.54198378 322.55129054 289.30214238 322.53903532 304.06240129 C322.53776126 305.6394046 322.53650378 307.21640792 322.53526306 308.79341125 C322.53433741 309.95697282 322.53433741 309.95697282 322.53339306 311.14404067 C322.52995425 316.58340915 322.5357366 322.02272204 322.54518127 327.46208191 C322.5564552 334.10020078 322.55324887 340.73813071 322.5320583 347.37622821 C322.52161951 350.75651377 322.51949209 354.1362282 322.53065491 357.51655006 C322.58083213 374.26173798 322.23856336 389.28051828 314.1875 404.375 C313.66603394 405.37793091 313.66603394 405.37793091 313.1340332 406.40112305 C310.28046487 411.75131986 307.100994 416.51428201 303 421 C302.19949219 421.89203125 301.39898437 422.7840625 300.57421875 423.703125 C287.22992052 437.8391978 268.36132731 447.76445489 248.66147137 448.38031673 C246.35345598 448.39789073 244.04528058 448.39946981 241.73722839 448.38768005 C240.45532334 448.39306559 239.17341829 448.39845113 237.85266763 448.40399987 C234.32857033 448.41834324 230.80470909 448.41424497 227.28059947 448.40683305 C223.46656012 448.40207584 219.65256999 448.41463372 215.83854675 448.42485046 C208.37947027 448.44199457 200.92047818 448.44288755 193.46138712 448.43763756 C187.394383 448.4335861 181.32740371 448.43505097 175.26040077 448.44038582 C173.96214071 448.44150845 173.96214071 448.44150845 172.63765318 448.44265376 C170.87901955 448.44418534 169.12038593 448.44572369 167.36175231 448.44726873 C150.89125177 448.46097812 134.4207988 448.45556728 117.95029936 448.44408352 C102.9070748 448.43415476 87.8639733 448.44708842 72.82076772 448.47101771 C57.34704281 448.49544497 41.87337512 448.50500756 26.39963132 448.49836498 C17.7232803 448.49488056 9.04702385 448.49705323 0.37068748 448.51461601 C-7.01591378 448.52938352 -14.40235389 448.52991441 -21.78895215 448.5125451 C-25.55191488 448.5040696 -29.31459027 448.50180008 -33.07753754 448.51719666 C-50.58950413 448.58376221 -66.55867348 448.62357944 -82.375 440.1875 C-83.04362061 439.83985596 -83.71224121 439.49221191 -84.40112305 439.1340332 C-89.74996286 436.28118864 -94.51942613 433.10515238 -99 429 C-99.90363281 428.17628906 -100.80726562 427.35257812 -101.73828125 426.50390625 C-116.98722924 411.95653368 -125.87480222 393.03989227 -126.4607172 371.94272614 C-126.54610294 365.81352302 -126.53781995 359.68626731 -126.51757812 353.55664062 C-126.52080766 350.79061084 -126.5299885 348.02460751 -126.53881836 345.2585907 C-126.55650909 338.55588484 -126.5528061 331.85335919 -126.5411678 325.15064657 C-126.53209625 319.69821988 -126.53092546 314.24584334 -126.53526306 308.79341125 C-126.53587599 308.01434722 -126.53648893 307.23528318 -126.53712043 306.43261114 C-126.53839947 304.8494491 -126.53969632 303.26628708 -126.5410108 301.68312508 C-126.55238892 286.87360727 -126.53934652 272.06418887 -126.51780933 257.25468737 C-126.49994086 244.57582909 -126.50304575 231.89711736 -126.52148438 219.21826172 C-126.54294019 204.45801622 -126.55129054 189.69785762 -126.53903532 174.93759871 C-126.53776126 173.3605954 -126.53650378 171.78359208 -126.53526306 170.20658875 C-126.53464596 169.43088104 -126.53402886 168.65517333 -126.53339306 167.85595933 C-126.52995425 162.41659085 -126.5357366 156.97727796 -126.54518127 151.53791809 C-126.5564552 144.89979922 -126.55324887 138.26186929 -126.5320583 131.62377179 C-126.52161951 128.24348623 -126.51949209 124.8637718 -126.53065491 121.48344994 C-126.58070032 104.78225195 -126.24156935 89.76102917 -118.25 74.6875 C-117.73566406 73.69169922 -117.73566406 73.69169922 -117.2109375 72.67578125 C-114.12191933 66.88105373 -110.43524717 61.84803255 -106 57 C-105.42121094 56.3296875 -104.84242187 55.659375 -104.24609375 54.96875 C-91.68152903 41.29155644 -72.6539223 31.83287763 -54.03997803 30.90197754 C-48.7971736 30.75938031 -43.5561791 30.81679181 -38.3125 30.875 C-36.72461505 30.88505504 -35.1367239 30.8941764 -33.54882812 30.90234375 C-29.69906275 30.92414557 -25.84960173 30.95853441 -22 31 C-22.0314209 30.09290283 -22.0314209 30.09290283 -22.06347656 29.16748047 C-22.14708945 26.40349229 -22.19880054 23.63977087 -22.25 20.875 C-22.28351563 19.92367187 -22.31703125 18.97234375 -22.3515625 17.9921875 C-22.43331583 12.10594747 -22.01758507 8.63341928 -18 4 C-12.72867143 -1.00776214 -6.89190982 -0.92775709 0 0 Z M-81.8125 79.625 C-93.80371845 93.85114089 -94 108.87079081 -94 127 C32.72 127 159.44 127 290 127 C290 106.86998772 288.96403185 91.10601675 274.51171875 76.1875 C262.0205475 65.30871944 248.70844957 63.52047736 232.8125 63.8125 C231.36915473 63.82758723 229.92579404 63.84126843 228.48242188 63.85351562 C224.98795463 63.88617132 221.49407988 63.93772548 218 64 C217.98598145 64.90709717 217.98598145 64.90709717 217.97167969 65.83251953 C217.91768278 68.5974788 217.83409606 71.36079906 217.75 74.125 C217.73582031 75.07632813 217.72164063 76.02765625 217.70703125 77.0078125 C217.50092244 82.94374615 216.93558967 86.46898902 213 91 C208.03377531 94.54730335 202.9006143 94.84027735 197 94 C191.83034639 92.20605304 189.87638074 89.7939679 187 85 C186.67 78.07 186.34 71.14 186 64 C127.92 64 69.84 64 10 64 C9.67 70.93 9.34 77.86 9 85 C4.14285714 92.28571429 4.14285714 92.28571429 -1 94 C-7.82627542 94.91393109 -12.48727649 94.16266878 -18 90 C-21.93551306 85.29976639 -21.55018046 80.02946559 -21.6875 74.1875 C-21.72166016 73.20845703 -21.75582031 72.22941406 -21.79101562 71.22070312 C-21.87319858 68.81391655 -21.94244433 66.40748055 -22 64 C-26.17677912 63.89955022 -30.35287985 63.82780601 -34.53051758 63.78027344 C-35.945356 63.76041606 -37.36011531 63.73332034 -38.7746582 63.69824219 C-55.60761897 63.29190874 -69.79088714 67.26220614 -81.8125 79.625 Z M-94 160 C-94.04125 194.051875 -94.0825 228.10375 -94.125 263.1875 C-94.14320801 273.92821045 -94.16141602 284.6689209 -94.18017578 295.73510742 C-94.18686582 305.38681729 -94.18686582 305.38681729 -94.19088745 315.03852844 C-94.19274613 319.32797832 -94.20022277 323.61737839 -94.21115112 327.90681458 C-94.22493146 333.38880775 -94.22897081 338.87072913 -94.22614455 344.35273802 C-94.22673502 346.35803429 -94.23066391 348.36333323 -94.23843026 350.36861455 C-94.3119664 370.29118109 -93.42477473 387.20571524 -78.8984375 402.1640625 C-65.92436208 414.40462129 -51.16138076 416.15809327 -34.07159424 416.13371277 C-32.30972342 416.1371111 -32.30972342 416.1371111 -30.51225924 416.14057809 C-27.27402737 416.14578997 -24.03583068 416.14656698 -20.79759598 416.14538372 C-17.29644631 416.14517875 -13.79530477 416.15070759 -10.29415894 416.15544128 C-3.44296688 416.16372762 3.40821657 416.16649521 10.25941321 416.16705366 C15.8316475 416.16752978 21.40387897 416.16958928 26.97611237 416.17275429 C42.79429503 416.18155533 58.61247092 416.18617452 74.43065605 416.18542381 C75.70828208 416.18536388 75.70828208 416.18536388 77.01171875 416.18530273 C78.29091501 416.18524141 78.29091501 416.18524141 79.59595361 416.18517885 C93.41204437 416.18477253 107.22810786 416.19434005 121.04419073 416.2084411 C135.24992626 416.22282478 149.45564851 416.22971019 163.6613915 416.22884732 C171.62899634 416.22851605 179.59657258 416.23123281 187.56417084 416.24202538 C194.34846016 416.25115662 201.13270792 416.25328415 207.91700074 416.24651595 C211.37380775 416.24326396 214.83053514 416.24314593 218.28733444 416.2518692 C222.04617981 416.25961989 225.80481855 416.25492384 229.56365967 416.24723816 C230.64024676 416.25238172 231.71683385 416.25752529 232.8260448 416.26282471 C250.0058987 416.18563597 263.65794995 413.04336268 276.1640625 400.8984375 C287.4902324 388.89354581 290.17969761 374.9985075 290.12025452 359.02122498 C290.12111053 358.16620392 290.12196655 357.31118286 290.12284851 356.43025208 C290.12449201 353.58165341 290.11899922 350.7331147 290.11352539 347.88452148 C290.1132188 345.80086551 290.11335298 343.71720943 290.11389065 341.6335535 C290.1141158 336.06904029 290.10833273 330.50454871 290.10128021 324.94004059 C290.09557244 319.71267124 290.09531639 314.48530708 290.09460449 309.25793457 C290.08936352 293.98445353 290.07540231 278.71097649 290.0625 263.4375 C290.041875 229.303125 290.02125 195.16875 290 160 C163.28 160 36.56 160 -94 160 Z " fill="#000000" transform="translate(158,32)"/>
<path d="M0 0 C4.0436828 3.32069585 6.55977494 6.16179647 7.34765625 11.46484375 C7.3940625 12.95757812 7.3940625 12.95757812 7.44140625 14.48046875 C7.49296875 15.4653125 7.54453125 16.45015625 7.59765625 17.46484375 C5.85807814 26.12131577 -2.91731174 32.88011477 -8.91601562 38.86254883 C-9.902631 39.85352024 -10.8888305 40.84490583 -11.87464905 41.83666992 C-14.53310127 44.50842076 -17.19782675 47.17382705 -19.86420631 49.83766389 C-22.09525584 52.06763847 -24.32331012 54.30059418 -26.55143118 56.53349417 C-31.80750855 61.80063294 -37.06885435 67.06246755 -42.33349609 72.32104492 C-47.75681471 77.73831238 -53.17086351 83.16472024 -58.58051443 88.59563333 C-63.23684759 93.26959057 -67.898976 97.93771137 -72.56575632 102.60123748 C-75.3481519 105.38182294 -78.12829247 108.16457087 -80.90281677 110.95301247 C-83.50960338 113.57238757 -86.12356512 116.18438533 -88.74316216 118.79094696 C-90.15682553 120.20112434 -91.56310523 121.61869161 -92.96913147 123.03648376 C-93.81853806 123.87887604 -94.66794464 124.72126831 -95.54309082 125.58918762 C-96.27457588 126.32084043 -97.00606094 127.05249323 -97.75971222 127.80631733 C-101.76827966 131.16146662 -105.73904595 133.15944841 -110.99609375 133.16796875 C-111.78886719 133.18730469 -112.58164063 133.20664062 -113.3984375 133.2265625 C-119.96572867 132.00182538 -124.6903097 127.53744462 -129.22167969 122.93969727 C-129.79334366 122.37168396 -130.36500763 121.80367065 -130.95399475 121.21844482 C-132.82443624 119.35604913 -134.68388448 117.4831024 -136.54296875 115.609375 C-137.8480604 114.30376414 -139.15367189 112.99867272 -140.45977783 111.69407654 C-143.18773695 108.96602797 -145.91047854 106.23291047 -148.62939453 103.49584961 C-152.10999862 99.99252578 -155.60160329 96.50041875 -159.09695053 93.01181126 C-161.79110179 90.32100481 -164.48023406 87.62522846 -167.16779327 84.92783928 C-168.45344312 83.63834856 -169.74043415 82.35019356 -171.02880096 81.06341743 C-172.8285509 79.26403935 -174.62165016 77.45828559 -176.41308594 75.65063477 C-176.94299637 75.12320175 -177.4729068 74.59576874 -178.01887512 74.05235291 C-182.75298815 69.24985214 -185.48727989 65.64133889 -185.49609375 58.79296875 C-185.35668575 53.62853601 -184.66390338 50.62810078 -181.05859375 46.73046875 C-180.35734375 45.96734375 -179.65609375 45.20421875 -178.93359375 44.41796875 C-174.83266799 42.01090363 -170.79306635 41.35308325 -166.05859375 41.73046875 C-160.9925912 43.57964081 -157.79270198 45.50059783 -153.94946289 49.38549805 C-153.49002289 49.84435394 -153.03058289 50.30320984 -152.55722046 50.77597046 C-151.05970137 52.27624865 -149.57681069 53.79012731 -148.09375 55.3046875 C-147.0508824 56.35502524 -146.00712085 57.40447606 -144.96250916 58.45307922 C-142.22954358 61.20124022 -139.50881031 63.96120243 -136.79052734 66.72387695 C-134.00897529 69.54651365 -131.215915 72.35771247 -128.42382812 75.16992188 C-122.95748178 80.67903143 -117.50401914 86.20067081 -112.05859375 91.73046875 C-108.82089467 90.30927506 -106.68559374 88.59606907 -104.20793152 86.08666992 C-103.45527512 85.32953705 -102.70261871 84.57240417 -101.92715454 83.79232788 C-101.11096649 82.96109406 -100.29477844 82.12986023 -99.45385742 81.2734375 C-98.15311531 79.96108627 -98.15311531 79.96108627 -96.82609558 78.6222229 C-94.94257874 76.72104419 -93.06093489 74.8181932 -91.1819973 72.9125061 C-88.20830527 69.89739513 -85.22534193 66.89157389 -82.24055481 63.88745117 C-73.75504064 55.34440286 -65.2795865 46.79146148 -56.8190918 38.22363281 C-52.14451546 33.48991323 -47.46097791 28.76525008 -42.76749784 24.05027103 C-39.80038592 21.0685471 -36.84467776 18.07610214 -33.89695966 15.07521057 C-31.62529617 12.76920305 -29.33715297 10.47964305 -27.05151367 8.1875 C-26.24139832 7.35626617 -25.43128296 6.52503235 -24.59661865 5.66860962 C-17.86141563 -1.03134735 -9.13695845 -5.63474667 0 0 Z " fill="#000000" transform="translate(345.05859375,254.26953125)"/>
</svg>
