<?xml version="1.0" encoding="UTF-8"?>
<svg version="1.1" xmlns="http://www.w3.org/2000/svg" width="161" height="256">
<path d="M0 0 C1.66137695 1.22583008 1.66137695 1.22583008 3 3 C3.34057617 5.4519043 3.34057617 5.4519043 3.29296875 8.32421875 C3.2784668 9.86625977 3.2784668 9.86625977 3.26367188 11.43945312 C3.23853516 12.51130859 3.21339844 13.58316406 3.1875 14.6875 C3.16719727 16.31268555 3.16719727 16.31268555 3.14648438 17.97070312 C3.11110643 20.64763405 3.06174189 23.32356838 3 26 C4.02154175 25.97643433 4.02154175 25.97643433 5.0637207 25.95239258 C8.14656281 25.89006778 11.22927244 25.85101742 14.3125 25.8125 C15.38435547 25.78736328 16.45621094 25.76222656 17.56054688 25.73632812 C18.58857422 25.72666016 19.61660156 25.71699219 20.67578125 25.70703125 C21.62364502 25.6913208 22.57150879 25.67561035 23.5480957 25.65942383 C26 26 26 26 27.62943459 27.12510681 C29.63063164 29.86268555 29.3776614 31.96962639 29.38095093 35.33886719 C29.3856309 35.98451504 29.39031087 36.63016289 29.39513266 37.29537582 C29.40711608 39.46275005 29.39761295 41.62949587 29.38818359 43.796875 C29.39224783 45.34908417 29.39758888 46.90129044 29.40411377 48.45349121 C29.41781086 52.67246062 29.41247892 56.89121038 29.40297651 61.11018372 C29.39539228 65.52105307 29.40242208 69.93190336 29.40713501 74.34277344 C29.41259618 81.75068547 29.4053915 89.15850783 29.39111328 96.56640625 C29.37478605 105.13645997 29.38007431 113.70629959 29.3965925 122.27634811 C29.41019711 129.62843028 29.41213206 136.98044792 29.40427649 144.3325386 C29.39959432 148.72624471 29.39899001 153.11985012 29.40888596 157.5135498 C29.41753847 161.64384506 29.41156533 165.77386372 29.39420319 169.90412903 C29.39022913 171.42189575 29.39138806 172.93968567 29.39799118 174.45744324 C29.40616096 176.52565629 29.39594193 178.59297699 29.38095093 180.66113281 C29.37981985 181.81961731 29.37868877 182.97810181 29.37752342 184.17169189 C29 187 29 187 27.66369057 188.8336792 C24.61710707 190.96946922 21.9265976 191.12055158 18.33203125 191.09765625 C17.43935547 191.09443359 16.54667969 191.09121094 15.62695312 191.08789062 C14.23379883 191.07532227 14.23379883 191.07532227 12.8125 191.0625 C11.40194336 191.05573242 11.40194336 191.05573242 9.96289062 191.04882812 C7.64186288 191.03704626 5.32096356 191.02059558 3 191 C3.02618408 191.64549805 3.05236816 192.29099609 3.0793457 192.95605469 C3.18342439 195.88712117 3.2483581 198.81779909 3.3125 201.75 C3.35439453 202.76578125 3.39628906 203.7815625 3.43945312 204.828125 C3.56307255 212.34418609 3.56307255 212.34418609 0.67578125 215.70703125 C-2.75220124 217.36347242 -4.40942626 217.17083926 -8 216 C-9.66137695 214.76049805 -9.66137695 214.76049805 -11 213 C-11.34057617 210.63989258 -11.34057617 210.63989258 -11.29296875 207.89453125 C-11.28330078 206.91162109 -11.27363281 205.92871094 -11.26367188 204.91601562 C-11.23853516 203.89185547 -11.21339844 202.86769531 -11.1875 201.8125 C-11.17396484 200.77673828 -11.16042969 199.74097656 -11.14648438 198.67382812 C-11.11111389 196.11536301 -11.06175544 193.5579422 -11 191 C-11.86951294 191.02356567 -11.86951294 191.02356567 -12.7565918 191.04760742 C-15.40012739 191.11022791 -18.04350655 191.14907518 -20.6875 191.1875 C-21.59951172 191.21263672 -22.51152344 191.23777344 -23.45117188 191.26367188 C-28.47202952 191.31844487 -31.92233294 191.2970139 -36 188 C-37.81811363 186.18188637 -37.13417494 183.34619479 -37.14044189 180.90164185 C-37.14341302 180.25770285 -37.14638414 179.61376384 -37.1494453 178.95031154 C-37.15816712 176.77692005 -37.15964346 174.60358342 -37.16113281 172.43017578 C-37.16575853 170.87826417 -37.17078285 169.32635371 -37.17617798 167.77444458 C-37.18932779 163.5471649 -37.19575195 159.31990111 -37.20018864 155.09260416 C-37.20311522 152.45412766 -37.20721923 149.81565555 -37.21169281 147.17718124 C-37.22537457 138.92946966 -37.23503789 130.68176806 -37.2388947 122.43404591 C-37.24337723 112.89941804 -37.26093127 103.3649334 -37.2898953 93.83034909 C-37.31148208 86.4698304 -37.32159737 79.10935209 -37.32293582 71.74880207 C-37.32398602 67.34833904 -37.32993911 62.94801054 -37.34775543 58.54758072 C-37.36418435 54.40913457 -37.36641702 50.27092479 -37.35761642 46.13245773 C-37.35684325 44.61145649 -37.36122543 43.09044281 -37.37107468 41.56947327 C-37.38371183 39.49680582 -37.37796343 37.42498598 -37.36749268 35.35232544 C-37.36895924 34.19124331 -37.3704258 33.03016117 -37.3719368 31.83389473 C-37 29 -37 29 -35.63027573 27.12426567 C-33.27885341 25.50268514 -31.50920254 25.66006847 -28.67578125 25.70703125 C-27.64775391 25.71669922 -26.61972656 25.72636719 -25.56054688 25.73632812 C-23.95276367 25.7740332 -23.95276367 25.7740332 -22.3125 25.8125 C-21.22904297 25.82603516 -20.14558594 25.83957031 -19.02929688 25.85351562 C-16.35236595 25.88889357 -13.67643162 25.93825811 -11 26 C-11.02618408 25.32420898 -11.05236816 24.64841797 -11.0793457 23.95214844 C-11.18339264 20.88500288 -11.24834947 17.81822842 -11.3125 14.75 C-11.35439453 13.68652344 -11.39628906 12.62304688 -11.43945312 11.52734375 C-11.56309978 3.66341671 -11.56309978 3.66341671 -8.67578125 0.26171875 C-5.24918227 -1.35403522 -3.57467011 -1.1656533 0 0 Z M-23 40 C-23 84.88 -23 129.76 -23 176 C-10.46 176 2.08 176 15 176 C15 131.12 15 86.24 15 40 C2.46 40 -10.08 40 -23 40 Z " fill="#111111" transform="translate(39,12)"/>
<path d="M0 0 C3.3125 0.9375 3.3125 0.9375 5.3125 2.9375 C5.53955078 5.27587891 5.53955078 5.27587891 5.5078125 8.1640625 C5.50136719 9.1953125 5.49492188 10.2265625 5.48828125 11.2890625 C5.47152344 12.36929688 5.45476562 13.44953125 5.4375 14.5625 C5.42847656 15.65046875 5.41945312 16.7384375 5.41015625 17.859375 C5.38653409 20.55230152 5.35359556 23.24479255 5.3125 25.9375 C5.95799805 25.92178955 6.60349609 25.9060791 7.26855469 25.88989258 C10.19978029 25.82744198 13.13086579 25.7884777 16.0625 25.75 C17.07828125 25.72486328 18.0940625 25.69972656 19.140625 25.67382812 C20.1203125 25.66416016 21.1 25.65449219 22.109375 25.64453125 C23.01010742 25.6288208 23.91083984 25.61311035 24.83886719 25.59692383 C27.82651407 26.00827079 29.15165473 26.8613759 31.3125 28.9375 C32.33861815 32.01585446 32.44314072 34.12640254 32.45294189 37.35177612 C32.45865204 38.47617096 32.46436218 39.6005658 32.47024536 40.7590332 C32.47192215 42.61057007 32.47192215 42.61057007 32.47363281 44.49951172 C32.48108017 46.44858932 32.48108017 46.44858932 32.48867798 48.43704224 C32.50179434 52.00320177 32.50824532 55.56934248 32.51268864 59.13552237 C32.51562031 61.36362683 32.51972528 63.59172616 32.52419281 65.81982803 C32.53786511 72.79142987 32.54753334 79.76301996 32.5513947 86.73463428 C32.55587635 94.78182023 32.57343018 102.8288364 32.6023953 110.87597072 C32.62400972 117.0968682 32.63409883 123.3177179 32.63543582 129.53865254 C32.63648393 133.25393204 32.64239304 136.96905188 32.66025543 140.68429184 C32.67979311 144.82853253 32.67544813 148.9724176 32.66894531 153.11669922 C32.6781601 154.34700867 32.68737488 155.57731812 32.6968689 156.84490967 C32.69129974 157.97494415 32.68573059 159.10497864 32.67999268 160.26925659 C32.68219252 161.73874158 32.68219252 161.73874158 32.6844368 163.23791313 C32.23940274 166.46805356 31.26795793 168.34331077 29.3125 170.9375 C26.37118109 171.91793964 24.48748335 172.05371202 21.42578125 172.03515625 C20.48798828 172.03193359 19.55019531 172.02871094 18.58398438 172.02539062 C17.60751953 172.01701172 16.63105469 172.00863281 15.625 172 C14.63693359 171.99548828 13.64886719 171.99097656 12.63085938 171.98632812 C10.19134526 171.97454303 7.75195311 171.95809011 5.3125 171.9375 C5.33344727 172.61852783 5.35439453 173.29955566 5.37597656 174.0012207 C5.45907452 177.08399722 5.51113954 180.16653837 5.5625 183.25 C5.59601563 184.32185547 5.62953125 185.39371094 5.6640625 186.49804688 C5.67695312 187.52607422 5.68984375 188.55410156 5.703125 189.61328125 C5.72407227 190.56114502 5.74501953 191.50900879 5.76660156 192.4855957 C5.3125 194.9375 5.3125 194.9375 3.51074219 196.77416992 C0.14955023 198.55294376 -2.09938937 197.91607563 -5.6875 196.9375 C-7.74443776 194.81928923 -8.6079149 193.49408224 -9.02807617 190.55566406 C-9.01236572 189.69682617 -8.99665527 188.83798828 -8.98046875 187.953125 C-8.97080078 187.01855469 -8.96113281 186.08398438 -8.95117188 185.12109375 C-8.92603516 184.15300781 -8.90089844 183.18492187 -8.875 182.1875 C-8.85469727 180.71216797 -8.85469727 180.71216797 -8.83398438 179.20703125 C-8.79868726 176.78329585 -8.74938054 174.36067855 -8.6875 171.9375 C-9.29746826 171.96368408 -9.90743652 171.98986816 -10.53588867 172.0168457 C-13.31532758 172.12115719 -16.09435439 172.18592982 -18.875 172.25 C-20.31456055 172.3128418 -20.31456055 172.3128418 -21.78320312 172.37695312 C-22.71455078 172.39306641 -23.64589844 172.40917969 -24.60546875 172.42578125 C-25.45906982 172.45196533 -26.3126709 172.47814941 -27.19213867 172.50512695 C-29.98085052 171.87077072 -31.64725187 170.90409282 -33.61905003 168.82553387 C-36.10928009 164.42510444 -35.37433722 158.87199334 -35.33447266 153.96484375 C-35.34323425 152.64565948 -35.35199585 151.32647522 -35.36102295 149.96731567 C-35.38378753 146.35558662 -35.37499244 142.74457289 -35.35912752 139.13283157 C-35.34645346 135.35017239 -35.3582128 131.56757375 -35.36605835 127.78491211 C-35.37515059 121.4329938 -35.36317842 115.08136632 -35.33935547 108.72949219 C-35.31214467 101.38964118 -35.32095916 94.05048463 -35.3484875 86.71065044 C-35.37118994 80.4047308 -35.37437321 74.09902001 -35.36129415 67.7930727 C-35.35350575 64.02858919 -35.35244083 60.26443193 -35.36897659 56.49996948 C-35.38612521 52.30294787 -35.36234754 48.10712017 -35.33447266 43.91015625 C-35.34459381 42.66428741 -35.35471497 41.41841858 -35.36514282 40.13479614 C-35.24970491 30.76841098 -35.24970491 30.76841098 -32.30302429 27.66218567 C-29.41370806 25.75696066 -28.02931382 25.34419283 -24.60546875 25.44921875 C-23.67412109 25.46533203 -22.74277344 25.48144531 -21.78320312 25.49804688 C-20.82349609 25.53994141 -19.86378906 25.58183594 -18.875 25.625 C-17.40643555 25.65883789 -17.40643555 25.65883789 -15.90820312 25.69335938 C-13.49972545 25.75210273 -11.09440922 25.83417871 -8.6875 25.9375 C-8.71368408 25.32753174 -8.73986816 24.71756348 -8.7668457 24.08911133 C-8.87115719 21.30967242 -8.93592982 18.53064561 -9 15.75 C-9.04189453 14.79029297 -9.08378906 13.83058594 -9.12695312 12.84179688 C-9.20928062 8.08326744 -9.24634627 5.71378134 -6.3984375 1.7578125 C-3.6875 -0.0625 -3.6875 -0.0625 0 0 Z M-20.6875 39.9375 C-20.6875 78.8775 -20.6875 117.8175 -20.6875 157.9375 C-7.8175 157.9375 5.0525 157.9375 18.3125 157.9375 C18.3125 118.9975 18.3125 80.0575 18.3125 39.9375 C5.4425 39.9375 -7.4275 39.9375 -20.6875 39.9375 Z " fill="#101010" transform="translate(121.6875,44.0625)"/>
</svg>
