<?xml version="1.0" standalone="no"?>
<!DOCTYPE svg PUBLIC "-//W3C//DTD SVG 20010904//EN"
 "http://www.w3.org/TR/2001/REC-SVG-20010904/DTD/svg10.dtd">
<svg version="1.0" xmlns="http://www.w3.org/2000/svg"
 width="512.000000pt" height="512.000000pt" viewBox="0 0 512.000000 512.000000"
 preserveAspectRatio="xMidYMid meet">

<g transform="translate(0.000000,512.000000) scale(0.100000,-0.100000)"
fill="#000000" stroke="none">
<path d="M1690 5105 c-488 -61 -927 -298 -1238 -670 -249 -297 -403 -660 -441
-1044 -7 -65 -11 -477 -11 -1108 l0 -1004 1073 4 c1158 4 1101 1 1322 58 331
84 638 260 881 503 577 579 727 1453 374 2185 -194 401 -500 707 -901 901
-330 159 -698 220 -1059 175z m500 -654 c450 -103 800 -419 945 -854 124 -372
65 -783 -158 -1117 -28 -41 -98 -123 -156 -181 -157 -157 -300 -246 -504 -314
-186 -62 -236 -65 -996 -65 l-682 0 4 733 c3 702 4 735 24 817 12 47 34 119
48 160 159 438 547 761 1005 834 125 20 352 14 470 -13z"/>
<path d="M4266 3113 c-22 -253 -52 -433 -96 -576 l-19 -60 51 -56 c98 -107
178 -246 226 -391 48 -147 52 -204 52 -816 l0 -574 -574 0 c-611 0 -667 4
-816 51 -135 44 -287 132 -391 227 l-55 50 -83 -24 c-130 -37 -265 -63 -396
-75 -66 -6 -144 -14 -173 -17 l-53 -7 65 -95 c283 -416 732 -686 1228 -740 60
-6 440 -10 993 -10 l895 0 0 895 c0 553 -4 933 -10 993 -51 475 -301 907 -690
1194 -41 30 -92 65 -112 77 l-36 22 -6 -68z"/>
</g>
</svg>
