<?xml version="1.0" encoding="UTF-8"?>
<svg version="1.1" xmlns="http://www.w3.org/2000/svg" width="512" height="512">
<path d="M0 0 C1.28991887 -0.00853686 1.28991887 -0.00853686 2.60589671 -0.01724619 C3.54596167 -0.01842606 4.48602663 -0.01960594 5.4545784 -0.02082157 C6.45690545 -0.02590939 7.45923251 -0.03099721 8.49193311 -0.03623921 C11.86044126 -0.05197216 15.22892794 -0.06049096 18.5974617 -0.06893253 C21.00868745 -0.07847016 23.41991183 -0.08836128 25.8311348 -0.09858036 C33.07316054 -0.12726066 40.31519246 -0.14704495 47.55725276 -0.16397271 C49.60321867 -0.16876978 51.64918406 -0.17375283 53.69514942 -0.17877793 C66.40527621 -0.20974649 79.1154076 -0.23642611 91.82556152 -0.25319672 C94.76808302 -0.25714608 97.71060443 -0.2611491 100.65312576 -0.2652216 C101.38445651 -0.26622996 102.11578725 -0.26723832 102.86927953 -0.26827724 C114.7168673 -0.28528492 126.56424624 -0.32639754 138.41173205 -0.37724458 C150.5798702 -0.42903767 162.74790097 -0.45814097 174.91614842 -0.4653936 C181.74641798 -0.47005323 188.57634528 -0.48477676 195.40650558 -0.5251379 C201.83172355 -0.56306071 208.25651862 -0.57042672 214.68183899 -0.55713177 C217.03928971 -0.55718578 219.39676606 -0.56750775 221.75411987 -0.5888834 C224.97480342 -0.61652512 228.19335018 -0.60707247 231.41405106 -0.58844852 C232.34519313 -0.60524345 233.2763352 -0.62203838 234.23569369 -0.63934225 C241.06322664 -0.54079388 244.72709223 1.54593516 249.68828201 6.1398077 C250.92900199 7.25594495 250.92900199 7.25594495 252.19478703 8.39463043 C252.90620193 9.10529128 253.61761683 9.81595213 254.35058975 10.54814816 C255.18183868 11.37375744 256.01308762 12.19936672 256.86952591 13.04999447 C258.19387146 14.38041271 258.19387146 14.38041271 259.54497147 15.73770809 C260.50637745 16.69639826 261.46820712 17.6546637 262.43042374 18.61254025 C265.02151152 21.1945757 267.60631197 23.78281797 270.18968987 26.37256455 C272.90253697 29.09050455 275.62029378 31.80352832 278.33725357 34.51735592 C282.89414291 39.07061702 287.44682207 43.62805575 291.9971199 48.1879034 C297.25234141 53.45402688 302.51475531 58.71288054 307.78092414 63.96805483 C312.31302325 68.49107187 316.84120577 73.01798223 321.3661496 77.54815763 C324.06417581 80.24929594 326.76352117 82.94907872 329.4664135 85.64534855 C332.00480715 88.17795529 334.53823996 90.71542308 337.06796455 93.25668812 C338.43687959 94.62949762 339.8107064 95.99740381 341.18468094 97.3651495 C342.00183075 98.18793896 342.81898056 99.01072842 343.66089249 99.85845089 C344.72518714 100.92387662 344.72518714 100.92387662 345.8109827 102.01082611 C349.68299384 106.40194285 351.06305546 109.58197387 351.07139206 115.46592617 C351.08497702 117.39166776 351.08497702 117.39166776 351.09883642 119.35631323 C351.09373216 120.7789781 351.08834007 122.20164196 351.08269119 123.62430477 C351.08757985 125.13728619 351.09376954 126.65026387 351.10114908 128.16323519 C351.1175762 132.32267562 351.11522501 136.48192686 351.10977411 140.64138842 C351.10710718 145.12695908 351.12162973 149.61247894 351.13386917 154.09802914 C351.15494275 162.88822872 351.1594628 171.67836238 351.15768129 180.46858424 C351.15637412 187.61605486 351.16017552 194.7635049 351.16760635 201.91097164 C351.16970556 203.9692022 351.17180316 206.02743276 351.17389917 208.08566332 C351.17546447 209.622337 351.17546447 209.622337 351.17706138 211.1900546 C351.19597303 230.57522823 351.19491131 249.96036405 351.18809205 269.34554309 C351.1825214 287.06771794 351.20331998 304.78974801 351.23645252 322.51188904 C351.27021632 340.71323231 351.28535413 358.91450629 351.28073549 377.11588144 C351.27849281 387.33265566 351.28370385 397.54929622 351.30862808 407.76604366 C351.32967645 416.46820818 351.33319862 425.17016583 351.31432849 433.87233895 C351.3051907 438.30945658 351.30396701 442.7461889 351.32468414 447.18327618 C351.34347251 451.2524617 351.33880357 455.32094848 351.31613833 459.39010805 C351.31197213 460.85518801 351.3160854 462.32032236 351.32973427 463.78534466 C351.45973353 478.77035679 347.38886751 489.94511488 337.10625076 500.8116827 C329.64153061 507.85866913 319.9057332 512.2593353 309.68379307 512.27123547 C308.44622393 512.27507661 307.20865479 512.27891776 305.93358356 512.2828753 C304.55789644 512.28209505 303.18220937 512.28121626 301.80652237 512.2802496 C300.3467562 512.28283332 298.88699073 512.2858465 297.42722625 512.289253 C293.41012025 512.29732623 289.39303213 512.29911276 285.37591898 512.29985046 C281.04501212 512.3017006 276.71411454 512.30924803 272.38321304 512.31598568 C262.90740532 512.32957468 253.43160183 512.3355954 243.95578599 512.33999634 C238.03516758 512.34275939 232.1145508 512.34699702 226.19393349 512.35150051 C209.79284168 512.36369692 193.39175119 512.37399355 176.99065495 512.3773756 C175.94060238 512.37759517 174.89054982 512.37781473 173.80867748 512.37804095 C172.7561312 512.37825923 171.70358492 512.37847751 170.61914331 512.3787024 C168.48634644 512.37914586 166.35354958 512.37959243 164.22075272 512.38004208 C163.16281514 512.38026351 162.10487757 512.38048494 161.01488128 512.38071308 C143.89677187 512.3846557 126.77870519 512.40209166 109.66061226 512.4254016 C92.07401885 512.44915541 74.48744683 512.46157939 56.90083712 512.46274352 C47.0315946 512.46365834 37.16240763 512.46936132 27.29318047 512.48756313 C18.88320223 512.50301898 10.47329671 512.50805262 2.06330696 512.49982503 C-2.22232059 512.49593704 -6.50780199 512.49675655 -10.79341125 512.51088238 C-14.72884188 512.52373429 -18.66401824 512.52232632 -22.59944908 512.51029167 C-24.01146898 512.50835391 -25.42350761 512.51132234 -26.83550134 512.52013603 C-40.77790297 512.60154439 -54.47108922 510.62675026 -67.68671799 506.0773077 C-68.55611008 505.78130672 -69.42550217 505.48530575 -70.32123947 505.18033504 C-89.21826902 498.46572395 -104.78623031 487.84763548 -119.31171799 474.1398077 C-120.04906174 473.46691708 -120.78640549 472.79402645 -121.54609299 472.1007452 C-139.18035889 455.40447216 -149.91225568 433.27704498 -156.31171799 410.1398077 C-156.5037883 409.46401669 -156.69585861 408.78822567 -156.89374924 408.09195614 C-165.84430613 374.90315452 -158.1311475 337.40070605 -141.63203049 308.0148077 C-136.04680698 298.46693611 -128.88306799 290.16278209 -121.31171799 282.1398077 C-120.63882736 281.40246395 -119.96593674 280.6651202 -119.27265549 279.9054327 C-105.21662017 265.05973248 -86.90877751 254.76247074 -67.68671799 248.2023077 C-66.50891769 247.79673641 -66.50891769 247.79673641 -65.30732346 247.38297176 C-59.76488694 245.61073978 -54.18628679 244.52726612 -48.46259689 243.54776669 C-47.67697876 243.41132496 -46.89136063 243.27488323 -46.08193588 243.13430691 C-44.15890411 242.80064331 -42.23536155 242.46992588 -40.31171799 242.1398077 C-40.31117322 241.08496842 -40.31062845 240.03012915 -40.31006718 238.94332504 C-40.29565398 213.24380122 -40.25256364 187.54444643 -40.17962742 161.84502029 C-40.14501535 149.41681435 -40.11962684 136.98871888 -40.11616135 124.560462 C-40.11311621 113.72447695 -40.09255166 102.88868886 -40.05119342 92.05277985 C-40.02991187 86.31839143 -40.017238 80.58428268 -40.02556419 74.84985447 C-40.03313485 69.4447822 -40.01715894 64.0402752 -39.98365784 58.63530636 C-39.97546087 56.6589509 -39.97563142 54.68253884 -39.98512077 52.70618916 C-40.05711439 36.05423031 -37.56509181 23.97547189 -25.72968674 11.4679327 C-18.97454775 5.09081853 -9.40075423 0.03642359 0 0 Z M-6.31171799 37.1398077 C-9.70225712 42.22561641 -9.45639554 47.25421448 -9.43870163 53.21323299 C-9.44026162 54.02125937 -9.44182161 54.82928574 -9.44342887 55.66179776 C-9.44741412 58.36640041 -9.44425885 61.07094683 -9.44111252 63.77554989 C-9.44246761 65.71552723 -9.44424816 67.65550432 -9.44642258 69.59548092 C-9.45098281 74.86161937 -9.44921344 80.12773824 -9.44604349 85.39387703 C-9.44351408 90.89872637 -9.44585892 96.40357402 -9.44742966 101.90842342 C-9.44924903 111.14880328 -9.44685046 120.38917515 -9.44208908 129.62955379 C-9.43664047 140.32748991 -9.43841439 151.02540699 -9.44391549 161.72334266 C-9.44844554 170.89875634 -9.44909789 180.07416428 -9.44647682 189.24957871 C-9.44491427 194.73415804 -9.44471979 200.2187284 -9.44801331 205.70330715 C-9.45089067 210.85457475 -9.44891884 216.00581764 -9.44311905 221.15708256 C-9.441791 223.05303373 -9.44218632 224.94898696 -9.44438171 226.84493732 C-9.4470913 229.42142578 -9.44371455 231.99783373 -9.43870163 234.57431698 C-9.44093235 235.33451035 -9.44316307 236.09470373 -9.44546139 236.87793326 C-9.7391876 240.29706078 -9.7391876 240.29706078 -8.31171799 243.1398077 C-6.6257346 243.41795217 -4.93867599 243.69058512 -3.24775314 243.93692684 C11.87554308 246.20525238 26.18091529 250.97456428 39.75078201 258.0148077 C40.83722 258.57567074 40.83722 258.57567074 41.94560623 259.14786434 C45.29896109 260.972853 48.23648843 262.71505407 51.03545856 265.34650517 C60.34622483 273.79267229 69.23221412 273.38526905 81.34038162 273.20572567 C83.41283856 273.20814171 85.48529408 273.21456316 87.55772781 273.22466183 C93.1548756 273.24108938 98.75047025 273.2029366 104.34738994 273.15548754 C110.21336209 273.11603833 116.07919287 273.13008997 121.94525528 273.1391058 C133.04559203 273.14864085 144.14532262 273.11509211 155.24552876 273.06373608 C175.14355388 272.97309036 195.04172074 272.9558694 214.93993002 272.95454228 C221.92171956 272.95236397 228.90312809 272.93125936 235.88481796 272.89435172 C240.22039393 272.87373165 244.55594147 272.86489846 248.8915596 272.85872364 C250.90357557 272.85313904 252.91558474 272.84232691 254.92754173 272.82594013 C257.67098422 272.80415843 260.41386818 272.80069296 263.15738297 272.80164242 C264.35474363 272.78516244 264.35474363 272.78516244 265.57629341 272.76834953 C270.13591603 272.7924984 273.06559798 273.31052316 276.68828201 276.1398077 C279.52306628 279.803983 280.09840398 282.55053755 280.06328201 287.1398077 C280.07101639 288.1504327 280.07875076 289.1610577 280.08671951 290.2023077 C279.62254143 293.62448339 278.79760752 295.4133433 276.68828201 298.1398077 C272.61194532 301.22485505 269.09440323 301.57297152 264.13962173 301.53853512 C263.38805953 301.54518194 262.63649732 301.55182877 261.8621605 301.55867702 C259.34857758 301.57730146 256.83547091 301.57470215 254.32182693 301.57218075 C252.51814985 301.58119826 250.71447891 301.59152545 248.91081619 301.60306454 C244.01662411 301.63066195 239.12254823 301.6399228 234.22828841 301.64591861 C229.11263654 301.65529511 223.9970717 301.68149793 218.88147354 301.70592403 C209.19539024 301.7496126 199.5093238 301.77814511 189.82317191 301.80124742 C178.79540439 301.82828643 167.76772432 301.87219876 156.7400192 301.91753614 C134.05615421 302.01041619 111.37226178 302.08208157 88.68828201 302.1398077 C89.22807693 303.13995907 89.76787186 304.14011044 90.3240242 305.17056942 C91.0445185 306.51181533 91.76488952 307.85312748 92.48515701 309.1944952 C92.83948807 309.85022518 93.19381912 310.50595516 93.55888748 311.18155575 C101.13308051 325.31134343 106.22252088 339.83863698 108.73784256 355.66837215 C109.02862664 359.20292967 109.02862664 359.20292967 110.68828201 362.1398077 C112.75251417 362.2423201 114.82030233 362.27336115 116.88707352 362.27783871 C117.54185204 362.28065999 118.19663057 362.28348127 118.87125087 362.28638804 C121.08143185 362.29476976 123.29156297 362.29607533 125.50175858 362.29752254 C127.07998166 362.30218821 128.6582034 362.30733136 130.23642349 362.31291866 C133.64352417 362.3242203 137.05061598 362.33264454 140.45772934 362.3390379 C145.84440773 362.34969537 151.23102279 362.36993468 156.61766434 362.39215755 C171.93821179 362.45415589 187.25875615 362.50809122 202.57939529 362.54117489 C211.03439251 362.55951329 219.48928433 362.58844114 227.94420409 362.6291796 C232.42071408 362.65026624 236.89709114 362.66570917 241.37365341 362.66798687 C245.58602406 362.67013253 249.79811815 362.68599338 254.01040459 362.71237659 C255.55634474 362.71957475 257.10231838 362.72166805 258.64827156 362.71827412 C260.75969393 362.71437936 262.87023306 362.72883275 264.98155594 362.74780941 C266.75359831 362.75277463 266.75359831 362.75277463 268.56143951 362.75784016 C272.03256066 363.18186395 273.89396172 364.07523073 276.68828201 366.1398077 C279.52306628 369.803983 280.09840398 372.55053755 280.06328201 377.1398077 C280.07101639 378.1504327 280.07875076 379.1610577 280.08671951 380.2023077 C279.62254143 383.62448339 278.79760752 385.4133433 276.68828201 388.1398077 C272.72401128 391.06860119 269.85788825 391.51950526 264.97482681 391.53853512 C263.98224073 391.54850536 263.98224073 391.54850536 262.96960241 391.55867702 C260.76002976 391.57727773 258.55100002 391.57470384 256.34135818 391.57218075 C254.75442619 391.58119974 253.16750117 391.59152729 251.58058548 391.60306454 C247.2772814 391.63064473 242.97410946 391.63992043 238.67072845 391.64591861 C234.17166897 391.65529962 229.67270831 391.6815028 225.17370987 391.70592403 C216.65635584 391.74960022 208.13902097 391.77814032 199.621589 391.80124742 C189.92389821 391.82829308 180.22630676 391.87220499 170.52868688 391.91753614 C150.58193869 392.01039845 130.63516077 392.08207194 110.68828201 392.1398077 C110.37600662 393.37859676 110.06373123 394.61738583 109.74199295 395.89371395 C109.47851059 396.93894222 109.47851059 396.93894222 109.20970535 398.00528622 C108.71669398 400.02349922 108.26325262 402.04576061 107.82890701 404.0773077 C101.17323829 434.8038732 86.08030449 458.23106629 63.68828201 480.1398077 C63.02828201 480.7998077 62.36828201 481.4598077 61.68828201 482.1398077 C92.65328198 482.18543839 123.61827305 482.2208299 154.58329866 482.24193836 C158.23946829 482.24443976 161.89563787 482.2470284 165.5518074 482.24967098 C166.64361815 482.25045791 166.64361815 482.25045791 167.75748568 482.25126074 C179.54124482 482.25996202 191.32498443 482.27573048 203.10873199 482.29411329 C215.20102727 482.31282004 227.29331233 482.32392607 239.38562149 482.32798469 C246.84648982 482.33072814 254.30730297 482.33939143 261.76815432 482.35564063 C267.4903034 482.36746782 273.21241716 482.36871708 278.93457603 482.36602306 C281.2811352 482.36657364 283.62769644 482.37055651 285.97424316 482.37821865 C289.17734468 482.38816535 292.38020984 482.38577743 295.5833168 482.38031673 C296.5123183 482.38614242 297.44131979 482.3919681 298.39847285 482.39797032 C304.91354219 482.36793899 310.38557504 482.13548708 315.50078201 477.7023077 C320.12638321 472.28374629 320.81391929 468.22973018 320.81132984 461.26151466 C320.81431641 459.48572534 320.81431641 459.48572534 320.81736332 457.67406148 C320.81299406 455.72903342 320.81299406 455.72903342 320.80853653 453.74471188 C320.80897264 452.35033868 320.80984829 450.95596556 320.8111257 449.56159288 C320.81336274 445.73054877 320.80936015 441.8995326 320.80434763 438.06849205 C320.80003201 433.93698034 320.80149035 429.80547021 320.80224991 425.67395687 C320.80277444 418.51601125 320.79963505 411.35807474 320.79401207 404.20013142 C320.78588746 393.8509276 320.78328086 383.50172819 320.78202408 373.15252153 C320.77983507 356.36190414 320.77317908 339.5712916 320.76372147 322.78067684 C320.75454344 306.46947917 320.74746451 290.15828282 320.74321365 273.84708309 C320.74295093 272.8417792 320.74268821 271.83647531 320.74241752 270.80070766 C320.74111249 265.75742883 320.73984878 260.71414999 320.73860562 255.67087114 C320.72823772 213.82717995 320.71062351 171.9834941 320.68828201 130.1398077 C319.55933014 130.13394146 318.43037827 130.12807522 317.26721573 130.12203121 C306.62886031 130.06482284 295.99070967 129.99207097 285.3525629 129.90409279 C279.88334819 129.85936181 274.41420843 129.82011158 268.94487381 129.79337215 C263.66683742 129.76736658 258.38908908 129.72698335 253.11123085 129.67662144 C251.0974441 129.65993419 249.0836075 129.6484315 247.06976128 129.64219379 C244.24934173 129.63257302 241.42966222 129.60453774 238.60942459 129.57218075 C237.77648376 129.57361584 236.94354294 129.57505093 236.08536148 129.5765295 C231.49447265 129.50202249 228.3470915 129.20691477 224.68828201 126.1398077 C221.05996424 121.81151945 221.24662982 117.6043797 221.25590897 112.21866512 C221.24062149 110.88620754 221.24062149 110.88620754 221.22502518 109.52683163 C221.19490434 106.59958233 221.18563057 103.67266034 221.17656326 100.74527645 C221.15971592 98.71216908 221.1415656 96.67907213 221.12216568 94.64598751 C221.07466573 89.30147206 221.04485623 83.95699884 221.01872635 78.61234188 C220.9889209 73.15591755 220.94239048 67.69963868 220.89726639 62.24332333 C220.81123325 51.54222754 220.7438879 40.84110182 220.68828201 30.1398077 C192.77666651 30.09309613 164.86505686 30.05782297 136.95341015 30.03618336 C123.99368292 30.02586885 111.03397998 30.01180515 98.07426834 29.98892879 C86.77917434 29.96900031 75.48409793 29.95609253 64.18898684 29.95163071 C58.20780769 29.94902243 52.22667885 29.9428881 46.24551582 29.92834759 C40.61577385 29.91477229 34.98610292 29.91058499 29.35634613 29.91359234 C27.29037147 29.91304216 25.22439442 29.90906443 23.15843391 29.90139675 C20.3363005 29.89143641 17.51443477 29.89384288 14.69229507 29.89929867 C13.87613108 29.89347299 13.05996709 29.8876473 12.21907085 29.88164508 C4.47406428 29.9220733 -1.08338927 31.01519407 -6.31171799 37.1398077 Z M250.68828201 53.1398077 C250.68828201 68.6498077 250.68828201 84.1598077 250.68828201 100.1398077 C266.19828201 100.1398077 281.70828201 100.1398077 297.68828201 100.1398077 C292.64853576 94.2520174 292.64853576 94.2520174 287.35112381 88.67325497 C286.55397461 87.87295361 285.75682541 87.07265224 284.93552017 86.24809933 C284.09467377 85.40927715 283.25382736 84.57045498 282.38750076 83.70621395 C281.51052032 82.82827679 280.63353989 81.95033962 279.72998428 81.0457983 C277.88812911 79.2032659 276.04502361 77.3619826 274.20073318 75.52188778 C272.30665392 73.63140974 270.41398082 71.73966644 268.52397537 69.84512997 C265.7936403 67.10865347 263.05990744 64.37562067 260.32500076 61.64371395 C259.4740332 60.79072216 258.62306564 59.93773037 257.74631119 59.05889034 C256.96492279 58.28065411 256.18353439 57.50241787 255.37846756 56.70059872 C254.6881897 56.01111645 253.99791183 55.32163418 253.28671646 54.61125851 C251.92775974 53.02692793 251.92775974 53.02692793 250.68828201 53.1398077 Z M-101.31171799 306.1398077 C-121.7202603 328.02909598 -129.4370551 355.05378057 -128.69062424 384.4054327 C-128.03274736 399.1633228 -123.94478091 412.02028863 -117.31171799 425.1398077 C-116.77675705 426.19812801 -116.24179611 427.25644833 -115.69062424 428.34683895 C-102.388837 452.68560074 -78.6182249 470.61220969 -52.18671799 478.4523077 C-23.64989394 485.33331642 4.09699317 481.5065408 29.68828201 467.1398077 C33.97006006 464.48600912 37.85550622 461.40307743 41.68828201 458.1398077 C42.54550858 457.43211239 43.40273514 456.72441708 44.28593826 455.99527645 C63.24382003 439.73310585 76.82547725 416.13108184 79.68828201 391.1398077 C81.93391493 361.64056172 76.18777197 334.04235 56.68828201 311.1398077 C55.9805867 310.28258114 55.27289139 309.42535458 54.54375076 308.54215145 C36.09567276 287.03601367 10.2885269 274.89334628 -17.74921799 272.2648077 C-50.09197104 270.84656933 -78.75133395 283.27861854 -101.31171799 306.1398077 Z " fill="#000000" transform="translate(160.31171798706055,-0.13980770111083984)"/>
<path d="M0 0 C0.94742288 -0.00538554 1.89484575 -0.01077108 2.87097842 -0.01631981 C6.04770818 -0.03063477 9.22402334 -0.02348684 12.40077209 -0.01637268 C14.67746313 -0.02207438 16.95415131 -0.02903786 19.23083496 -0.03717041 C25.41673598 -0.0551388 31.60249542 -0.0539265 37.78841472 -0.04822803 C42.95013726 -0.04514155 48.1118324 -0.05122258 53.27355105 -0.05726677 C66.14551566 -0.07212637 79.01738074 -0.0684883 91.88934148 -0.05640347 C103.06565815 -0.04647097 114.24180927 -0.05941179 125.41810041 -0.08333766 C136.89697878 -0.10772595 148.37575083 -0.11693742 159.85466009 -0.11068493 C166.2979843 -0.1073104 172.74117172 -0.10976347 179.18447685 -0.12693596 C185.24281796 -0.14237722 191.30084244 -0.13848059 197.35917091 -0.11963081 C199.58359592 -0.11593718 201.80804424 -0.11907583 204.03244781 -0.1295166 C207.06732798 -0.14267478 210.10115193 -0.13122432 213.13598633 -0.11352539 C214.45870486 -0.1279329 214.45870486 -0.1279329 215.80814499 -0.14263147 C221.23032979 -0.0774978 224.33055159 0.77682643 228.63148499 4.38768005 C232.68778897 9.61027863 232.40546042 15.04108148 231.63148499 21.38768005 C229.45916763 25.97368335 227.19373182 28.25953258 222.63148499 30.38768005 C219.5077394 30.82377297 216.41290825 30.79677453 213.26296997 30.77536011 C212.31554709 30.78074565 211.36812422 30.78613118 210.39199156 30.79167992 C207.21526179 30.80599487 204.03894663 30.79884695 200.86219788 30.79173279 C198.58550684 30.79743449 196.30881866 30.80439797 194.03213501 30.81253052 C187.846234 30.83049891 181.66047455 30.82928661 175.47455525 30.82358813 C170.31283271 30.82050166 165.15113757 30.82658269 159.98941892 30.83262688 C147.11745431 30.84748648 134.24558923 30.84384841 121.37362849 30.83176357 C110.19731182 30.82183108 99.0211607 30.8347719 87.84486956 30.85869776 C76.36599119 30.88308605 64.88721915 30.89229753 53.40830988 30.88604504 C46.96498567 30.88267051 40.52179825 30.88512358 34.07849312 30.90229607 C28.02015201 30.91773733 21.96212753 30.9138407 15.90379906 30.89499092 C13.67937405 30.89129729 11.45492573 30.89443594 9.23052216 30.90487671 C6.19564199 30.91803489 3.16181804 30.90658442 0.12698364 30.8888855 C-0.75482871 30.8984905 -1.63664107 30.90809551 -2.54517502 30.91799158 C-7.96735982 30.85285791 -11.06758162 29.99853368 -15.36851501 26.38768005 C-19.424819 21.16508148 -19.14249045 15.73427863 -18.36851501 9.38768005 C-14.33881483 0.88053521 -8.60187821 -0.05847869 0 0 Z " fill="#000000" transform="translate(209.36851501464844,181.61231994628906)"/>
<path d="M0 0 C4.57779278 2.16842816 6.9607463 4.39700893 9 9 C9.41545499 12.88351148 9.34840557 16.74287869 9.29296875 20.64453125 C9.28872391 21.7694548 9.28447906 22.89437836 9.28010559 24.0533905 C9.2633369 27.64000562 9.22568688 31.22605521 9.1875 34.8125 C9.17245087 37.24673667 9.15876287 39.68098216 9.14648438 42.11523438 C9.11343925 48.07701529 9.06325728 54.03846723 9 60 C10.3614917 59.9685791 10.3614917 59.9685791 11.75048828 59.93652344 C15.13877642 59.86809067 18.5263235 59.81807705 21.91503906 59.78027344 C23.37772252 59.76023668 24.84032666 59.73299896 26.30273438 59.69824219 C28.4129601 59.64936775 30.52212136 59.62695341 32.6328125 59.609375 C33.90012207 59.58842773 35.16743164 59.56748047 36.47314453 59.54589844 C41.56919155 60.20204183 44.72004694 62.35202661 47.84765625 66.37890625 C49.93568681 71.12829103 49.61920957 75.92248151 49 81 C46.82956981 85.58201929 44.60044619 87.94908459 40 90 C36.11734244 90.45992589 32.2539204 90.44408725 28.34765625 90.43359375 C27.21476669 90.4388356 26.08187714 90.44407745 24.91465759 90.44947815 C22.52164529 90.45589428 20.12860143 90.45456668 17.7355957 90.44604492 C14.07901704 90.43753842 10.42400239 90.46629896 6.76757812 90.49804688 C4.44010463 90.49965911 2.11262838 90.49908094 -0.21484375 90.49609375 C-1.30562729 90.50732773 -2.39641083 90.51856171 -3.52024841 90.53013611 C-9.47595128 90.47560137 -13.43604819 90.24844404 -18 86 C-21.01494833 81.92560344 -21.382344 78.94009274 -21.40405273 73.91821289 C-21.41091599 73.22486343 -21.41777924 72.53151398 -21.42485046 71.81715393 C-21.44308446 69.53544372 -21.43928604 67.25442337 -21.43359375 64.97265625 C-21.43815731 63.37991615 -21.44346341 61.78717803 -21.44947815 60.19444275 C-21.45840262 56.85977163 -21.45599393 53.52534008 -21.44604492 50.19067383 C-21.43455775 45.9256803 -21.45476552 41.66151503 -21.48396206 37.39663029 C-21.50234382 34.10825889 -21.50202769 30.82008524 -21.49632454 27.53167534 C-21.49617156 25.95965857 -21.50219697 24.3876282 -21.51461601 22.81566048 C-21.52956205 20.61364524 -21.51882476 18.41315061 -21.50170898 16.21118164 C-21.50154282 14.96051407 -21.50137665 13.7098465 -21.50120544 12.42127991 C-20.76742043 7.41238793 -18.59050878 4.23532127 -14.62109375 1.15234375 C-9.87170897 -0.93568681 -5.07751849 -0.61920957 0 0 Z " fill="#000000" transform="translate(142,302)"/>
</svg>
