<?xml version="1.0" standalone="no"?>
<!DOCTYPE svg PUBLIC "-//W3C//DTD SVG 20010904//EN"
 "http://www.w3.org/TR/2001/REC-SVG-20010904/DTD/svg10.dtd">
<svg version="1.0" xmlns="http://www.w3.org/2000/svg"
 width="512.000000pt" height="512.000000pt" viewBox="0 0 512.000000 512.000000"
 preserveAspectRatio="xMidYMid meet">

<g transform="translate(0.000000,512.000000) scale(0.100000,-0.100000)"
fill="#000000" stroke="none">
<path d="M2520 4963 c-8 -3 -343 -121 -745 -262 l-730 -256 -477 -5 c-459 -5
-478 -6 -504 -25 -15 -11 -35 -36 -46 -55 -18 -34 -18 -95 -16 -1772 3 -1736
3 -1737 24 -1764 11 -15 33 -37 48 -48 27 -21 38 -21 732 -24 l704 -3 0 -149
0 -150 -249 0 c-241 0 -249 -1 -281 -23 -54 -36 -74 -71 -74 -127 0 -54 18
-87 68 -124 27 -21 30 -21 1572 -24 1706 -2 1586 -7 1640 63 22 29 28 48 28
86 0 55 -20 90 -74 126 -32 22 -40 23 -281 23 l-249 0 0 150 0 149 704 3 c694
3 705 3 732 24 15 11 37 33 48 48 21 27 21 28 24 1764 2 1677 2 1738 -16 1772
-11 19 -31 44 -46 55 -26 19 -45 20 -469 25 l-442 6 -780 262 c-429 144 -791
262 -805 261 -14 0 -32 -3 -40 -6z m595 -487 c303 -101 543 -186 535 -190 -8
-3 -256 -86 -550 -185 l-536 -178 -516 181 c-284 100 -519 184 -522 187 -5 4
1010 366 1034 368 3 1 253 -82 555 -183z m-1885 -405 l195 -68 5 -329 c5 -355
8 -371 62 -406 13 -8 248 -102 523 -208 369 -142 512 -193 545 -194 36 0 144
38 520 183 261 101 495 193 520 205 33 16 51 33 67 66 22 43 23 53 23 355 l0
310 138 44 c75 24 143 46 149 48 10 4 13 -86 13 -429 0 -430 0 -434 23 -478
54 -107 206 -107 259 0 16 32 18 77 18 503 l0 467 265 0 265 0 0 -1545 0
-1545 -2260 0 -2260 0 0 1545 0 1545 368 0 368 0 194 -69z m904 -316 c250 -87
400 -135 426 -135 25 0 187 48 423 126 210 70 388 129 395 131 9 4 12 -38 12
-190 l0 -195 -92 -36 c-51 -19 -238 -91 -415 -159 l-323 -125 -322 125 c-178
68 -365 140 -415 159 l-93 36 0 199 c0 113 4 199 9 199 5 0 183 -61 395 -135z
m1176 -3155 l0 -150 -750 0 -750 0 0 150 0 150 750 0 750 0 0 -150z"/>
<path d="M695 2396 c-37 -17 -70 -52 -84 -89 -7 -18 -11 -146 -11 -350 0 -296
2 -325 20 -364 11 -25 33 -51 52 -63 31 -19 50 -20 376 -20 383 0 387 1 432
67 l25 37 0 340 c0 323 -1 343 -20 375 -11 19 -33 43 -48 55 -27 20 -40 21
-370 23 -270 2 -348 0 -372 -11z m505 -436 l0 -150 -150 0 -150 0 0 150 0 150
150 0 150 0 0 -150z"/>
<path d="M1886 2387 c-102 -59 -100 -207 4 -259 33 -17 114 -18 1274 -18
l1238 0 39 22 c50 28 84 93 75 146 -6 41 -29 76 -70 106 -27 21 -32 21 -1274
23 l-1247 3 -39 -23z"/>
<path d="M1914 1799 c-121 -35 -140 -203 -32 -269 32 -20 53 -20 1283 -20
1237 0 1250 0 1283 20 44 27 76 98 67 148 -9 51 -41 91 -89 113 -39 18 -92 19
-1261 18 -692 -1 -1233 -5 -1251 -10z"/>
</g>
</svg>
