<?xml version="1.0" encoding="UTF-8"?>
<svg version="1.1" xmlns="http://www.w3.org/2000/svg" width="512" height="512">
<path d="M0 0 C14.02989233 12.90452476 24.76749564 29.46052305 30.50830078 47.66357422 C30.90146484 48.90494141 31.29462891 50.14630859 31.69970703 51.42529297 C37.22683515 70.99076347 36.92393127 94.34344496 30.50830078 113.66357422 C30.29399414 114.31277832 30.0796875 114.96198242 29.85888672 115.63085938 C22.31220192 137.6612471 7.8603299 157.5219384 -11.49169922 170.66357422 C-8.66368562 172.89861723 -5.82507672 174.59262975 -2.61669922 176.22607422 C30.249334 193.99031794 56.46713387 225.13699295 67.64086914 260.88745117 C68.2963995 263.13852231 68.91010038 265.39663282 69.50830078 267.66357422 C69.71567871 268.41912598 69.92305664 269.17467773 70.13671875 269.953125 C74.74432204 287.40373951 73.50830078 303.11405631 73.50830078 321.66357422 C-23.84169922 321.66357422 -121.19169922 321.66357422 -221.49169922 321.66357422 C-221.49169922 276.85476284 -213.62261128 238.92444415 -182.49169922 205.66357422 C-181.98944824 205.11362793 -181.48719727 204.56368164 -180.96972656 203.99707031 C-169.52889887 191.53310888 -156.01977817 182.30894478 -141.24951172 174.18701172 C-138.40260678 172.66427987 -138.40260678 172.66427987 -135.49169922 170.66357422 C-136.34892578 170.02291016 -137.20615234 169.38224609 -138.08935547 168.72216797 C-162.03366443 150.68423865 -177.57175674 126.31265184 -181.98779297 96.31591797 C-185.48006244 67.82959293 -179.11165898 39.68405799 -162.11669922 16.41357422 C-142.87779802 -8.07826928 -118.82746896 -23.05457613 -87.85498047 -27.73486328 C-55.59097938 -31.57952686 -24.10697124 -21.59763676 0 0 Z M-134.05664062 30.96679688 C-148.09255793 47.56251401 -152.96312264 68.41754057 -151.49169922 89.66357422 C-148.82650298 110.17309214 -138.1499253 129.55956015 -121.86669922 142.41357422 C-104.03074731 154.94879042 -84.54414199 161.04855141 -62.64794922 158.15576172 C-40.27849825 154.20018807 -21.57808203 142.19001083 -8.45654297 123.75341797 C2.9114297 105.87654643 6.41383741 85.17321639 2.88330078 64.35107422 C-1.82212835 44.52105145 -13.72679767 26.8016181 -30.74560547 15.50341797 C-65.71344918 -5.91747752 -106.90019692 0.72146858 -134.05664062 30.96679688 Z M-162.67919922 229.97607422 C-177.63927069 247.41914511 -186.03280331 268.18075084 -189.49169922 290.66357422 C-113.26169922 290.66357422 -37.03169922 290.66357422 41.50830078 290.66357422 C40.85194039 284.09997028 40.28025515 278.84903722 38.25830078 272.78857422 C38.03360107 272.10150391 37.80890137 271.41443359 37.57739258 270.70654297 C36.90498207 268.68578359 36.21179295 266.67369887 35.50830078 264.66357422 C34.96882813 263.11283203 34.96882813 263.11283203 34.41845703 261.53076172 C28.75506133 246.73740781 19.54358388 234.80659369 8.50830078 223.66357422 C7.47769531 222.54208984 7.47769531 222.54208984 6.42626953 221.39794922 C-8.28326935 205.66648448 -28.99936846 196.79246935 -49.49169922 191.66357422 C-51.02117187 191.26332031 -51.02117187 191.26332031 -52.58154297 190.85498047 C-93.7635293 182.08642244 -134.83680683 200.31787363 -162.67919922 229.97607422 Z " fill="#000000" transform="translate(438.49169921875,170.33642578125)"/>
<path d="M0 0 C15.39394995 13.26216461 26.96125631 32.5201031 29 53 C30.75865332 78.23119424 25.63251439 100.39524928 9 120 C5.76148421 123.43802321 2.43314277 126.7568057 -1 130 C-0.10539063 130.54527344 0.78921875 131.09054688 1.7109375 131.65234375 C9.49604326 136.47740305 16.41430447 141.57894686 23 148 C23.845625 148.804375 24.69125 149.60875 25.5625 150.4375 C26.366875 151.283125 27.17125 152.12875 28 153 C28.65355469 153.65871094 29.30710938 154.31742188 29.98046875 154.99609375 C53.83227527 179.99738492 58 211.66191675 58 245 C-15.92 245 -89.84 245 -166 245 C-166 207.89115646 -166 207.89115646 -162 196 C-161.78037598 195.34692871 -161.56075195 194.69385742 -161.33447266 194.02099609 C-153.34542374 171.11679429 -139.26609468 151.58949908 -119.625 137.375 C-118.76890137 136.75395386 -118.76890137 136.75395386 -117.89550781 136.12036133 C-114.4009063 133.69264592 -111.09137994 132.1495418 -107 131 C-107.72574219 130.27683594 -108.45148438 129.55367187 -109.19921875 128.80859375 C-127.02815717 110.92992328 -138.14718407 90.33122036 -138.375 64.5 C-138.26057575 51.52585043 -135.67839985 39.72888859 -130 28 C-129.55785156 27.07574219 -129.11570313 26.15148437 -128.66015625 25.19921875 C-118.42215427 5.14861653 -100.82547779 -8.6539733 -79.75390625 -15.8125 C-52.15817013 -24.54205648 -22.33047774 -17.95082275 0 0 Z M-94.28125 29.5234375 C-103.9545048 41.95561356 -107.97496721 55.22325791 -107 71 C-104.72649583 85.50030217 -97.8423875 97.6093288 -86.375 106.75 C-74.15269332 115.54391122 -60.81626807 118.2879134 -46 117 C-32.66067341 114.45710005 -20.28039654 107.27870453 -12.0234375 96.39453125 C-3.0297161 82.82740684 0.32672618 68.4313656 -2.68359375 52.34765625 C-6.80345196 37.97088964 -15.25436387 26.21678605 -28.12109375 18.50390625 C-50.43386525 6.84798084 -77.07079944 10.48585006 -94.28125 29.5234375 Z M-116.1171875 176.265625 C-124.18780658 185.7493875 -134 201.07074452 -134 214 C-81.53 214 -29.06 214 25 214 C22.46168916 196.23182415 13.42100969 182.43911612 1 170 C0.34257812 169.33097656 -0.31484375 168.66195312 -0.9921875 167.97265625 C-15.88741674 153.87652729 -37.14428716 147.37694211 -57.30078125 147.75390625 C-80.59933217 149.30386265 -100.13198706 159.15969095 -116.1171875 176.265625 Z " fill="#000000" transform="translate(166,39)"/>
<path d="M0 0 C9.9 0 19.8 0 30 0 C30 28.38 30 56.76 30 86 C65.31 85.67 100.62 85.34 137 85 C131.72 79.72 126.44 74.44 121 69 C122.5328634 62.86854639 126.91815279 59.56897 131.3125 55.1875 C132.18068359 54.29095703 133.04886719 53.39441406 133.94335938 52.47070312 C134.78318359 51.62830078 135.62300781 50.78589844 136.48828125 49.91796875 C137.64130737 48.75430786 137.64130737 48.75430786 138.81762695 47.56713867 C141 46 141 46 142.802948 46.09484863 C145.99256167 47.40892002 147.88868616 49.49077807 150.33520508 51.9152832 C151.11389954 52.68127335 151.11389954 52.68127335 151.9083252 53.46273804 C153.61995196 55.15098698 155.32017096 56.85019159 157.01953125 58.55078125 C158.20418834 59.72833915 159.38914429 60.90559645 160.5743866 62.08256531 C163.05505636 64.54978981 165.5297073 67.02287356 168.00073242 69.49975586 C171.17295145 72.67788219 174.36306637 75.83735107 177.55835438 78.99226093 C180.00930191 81.41740655 182.44873551 83.85388063 184.88498497 86.29378319 C186.05686 87.46396108 187.23274004 88.63014199 188.41260719 89.79226112 C190.05779989 91.41540471 191.68643867 93.0535328 193.31176758 94.6965332 C194.24346268 95.62617386 195.17515778 96.55581451 196.13508606 97.5136261 C198 100 198 100 198.10021973 101.99801636 C196.50074732 104.90845098 194.4226866 106.97600721 192.0847168 109.33520508 C191.5740567 109.85433472 191.06339661 110.37346436 190.53726196 110.9083252 C188.84901302 112.61995196 187.14980841 114.32017096 185.44921875 116.01953125 C184.27166085 117.20418834 183.09440355 118.38914429 181.91743469 119.5743866 C179.45021019 122.05505636 176.97712644 124.5297073 174.50024414 127.00073242 C171.32211781 130.17295145 168.16264893 133.36306637 165.00773907 136.55835438 C162.58259345 139.00930191 160.14611937 141.44873551 157.70621681 143.88498497 C156.53603892 145.05686 155.36985801 146.23274004 154.20773888 147.41260719 C152.58459529 149.05779989 150.9464672 150.68643867 149.3034668 152.31176758 C148.37382614 153.24346268 147.44418549 154.17515778 146.4863739 155.13508606 C144 157 144 157 141.80592346 156.90911865 C139.20592316 155.60025434 137.48824913 153.82247039 135.453125 151.74609375 C134.60878906 150.89208984 133.76445312 150.03808594 132.89453125 149.15820312 C132.02183594 148.26037109 131.14914063 147.36253906 130.25 146.4375 C129.36183594 145.53580078 128.47367188 144.63410156 127.55859375 143.70507812 C125.36551685 141.47662902 123.17973956 139.24148407 121 137 C124.80058475 129.3988305 131.99074787 124.00925213 138 118 C69.69 117.505 69.69 117.505 0 117 C0 78.39 0 39.78 0 0 Z " fill="#000000" transform="translate(0,314)"/>
</svg>
