<?xml version="1.0" encoding="UTF-8"?>
<svg version="1.1" xmlns="http://www.w3.org/2000/svg" width="512" height="512">
<path d="M0 0 C3.81194827 0.00912986 7.6238258 -0.00495815 11.43575954 -0.01591969 C18.88442706 -0.03362566 26.33293256 -0.02990049 33.7816062 -0.01826912 C39.83996208 -0.00920368 45.89827284 -0.00802419 51.95663357 -0.01236439 C52.8217338 -0.01297732 53.68683404 -0.01359025 54.57814944 -0.01422176 C56.33605847 -0.01550077 58.09396749 -0.01679763 59.8518765 -0.01811212 C76.30237926 -0.02949471 92.75279259 -0.01644076 109.20328069 0.00508934 C123.2920692 0.02295821 137.38072585 0.01985345 151.46951199 0.0014143 C167.86462413 -0.02003355 184.25965807 -0.02839629 200.6547823 -0.01613665 C202.40591207 -0.01486257 204.15704186 -0.01360508 205.90817165 -0.01236439 C207.20026434 -0.01143873 207.20026434 -0.01143873 208.51845992 -0.01049438 C214.56346282 -0.0070532 220.60841575 -0.01284312 226.65341091 -0.0222826 C234.02896851 -0.03354759 241.40435602 -0.0303686 248.77989435 -0.00915962 C252.53679631 0.00129069 256.29341558 0.00557676 260.0503149 -0.00775623 C277.54885723 -0.06472382 293.502301 -0.08764142 309.30740261 8.33539867 C309.97239773 8.67869213 310.63739285 9.02198559 311.32253933 9.37568188 C316.66564204 12.21025199 321.37394661 15.54542236 325.93240261 19.52289867 C326.90048855 20.29504711 327.86857449 21.06719555 328.86599636 21.86274242 C338.27800569 29.71935234 344.87178526 41.07693139 348.93240261 52.52289867 C349.26575367 53.39253246 349.59910473 54.26216625 349.94255733 55.15815258 C354.22397825 68.29776574 353.50380041 81.92467308 353.45530128 95.59049606 C353.44617143 99.40244433 353.46025944 103.21432186 353.47122097 107.02625561 C353.48892694 114.47492312 353.48520178 121.92342862 353.47357041 129.37210226 C353.46450497 135.43045814 353.46332547 141.4887689 353.46766567 147.54712963 C353.4682786 148.41222987 353.46889154 149.27733011 353.46952304 150.1686455 C353.47080206 151.92655453 353.47209891 153.68446355 353.47341341 155.44237256 C353.484796 171.89287533 353.47174205 188.34328866 353.45021194 204.79377675 C353.43234307 218.88256527 353.43544784 232.97122191 353.45388699 247.06000805 C353.47533483 263.4551202 353.48369758 279.85015414 353.47143793 296.24527836 C353.47016385 297.99640813 353.46890637 299.74753792 353.46766567 301.49866772 C353.46674002 302.79076041 353.46674002 302.79076041 353.46579567 304.10895598 C353.46235449 310.15395888 353.46814441 316.19891181 353.47758389 322.24390697 C353.48884888 329.61946458 353.48566988 336.99485208 353.46446091 344.37039042 C353.4540106 348.12729238 353.44972452 351.88391165 353.46305752 355.64081097 C353.52002683 373.13988067 353.54230948 389.09213061 345.11990261 404.89789867 C344.77733425 405.56216869 344.43476589 406.22643871 344.08181667 406.91083813 C341.24860893 412.25541689 337.89219696 416.95027901 333.93240261 421.52289867 C333.33556667 422.31567211 332.73873074 423.10844555 332.12380886 423.92524242 C324.06854676 433.47381514 312.63609794 440.42369686 300.93240261 444.52289867 C300.06390179 444.85511677 299.19540096 445.18733486 298.30058193 445.52962017 C285.15999295 449.8147374 271.53244355 449.09430292 257.86480522 449.04579735 C254.05285695 449.03666749 250.24097942 449.0507555 246.42904568 449.06171703 C238.98037816 449.079423 231.53187266 449.07569784 224.08319902 449.06406647 C218.02484314 449.05500103 211.96653239 449.05382154 205.90817165 449.05816174 C205.04307142 449.05877467 204.17797118 449.0593876 203.28665578 449.06001911 C201.52874675 449.06129812 199.77083773 449.06259497 198.01292872 449.06390947 C181.56242596 449.07529206 165.11201263 449.06223811 148.66152453 449.04070801 C134.57273602 449.02283914 120.48407937 449.0259439 106.39529324 449.04438305 C90.00018109 449.0658309 73.60514715 449.07419364 57.21002293 449.06193399 C55.45889315 449.06065991 53.70776337 449.05940243 51.95663357 449.05816174 C51.09523844 449.05754463 50.23384331 449.05692753 49.34634531 449.05629173 C43.3013424 449.05285055 37.25638947 449.05864047 31.21139431 449.06807995 C23.83583671 449.07934494 16.4604492 449.07616595 9.08491087 449.05495697 C5.32800891 449.04450666 1.57138964 449.04022059 -2.18550968 449.05355358 C-19.68405201 449.11052117 -35.63749578 449.13343877 -51.44259739 440.71039867 C-52.10759251 440.36710522 -52.77258762 440.02381176 -53.45773411 439.67011547 C-58.80083682 436.83554536 -63.50914139 433.50037499 -68.06759739 429.52289867 C-69.03568333 428.75075024 -70.00376926 427.9786018 -71.00119114 427.18305492 C-80.41320047 419.326445 -87.00698004 407.96886596 -91.06759739 396.52289867 C-91.56762398 395.21844799 -91.56762398 395.21844799 -92.07775211 393.88764477 C-96.35917302 380.7480316 -95.63899519 367.12112427 -95.59049606 353.45530128 C-95.58136621 349.64335302 -95.59545422 345.83147549 -95.60641575 342.01954174 C-95.62412172 334.57087423 -95.62039656 327.12236872 -95.60876518 319.67369509 C-95.59969975 313.61533921 -95.59852025 307.55702845 -95.60286045 301.49866772 C-95.60347338 300.63356748 -95.60408632 299.76846724 -95.60471782 298.87715185 C-95.60599683 297.11924281 -95.60729369 295.36133379 -95.60860819 293.60342479 C-95.61999077 277.15292202 -95.60693682 260.70250869 -95.58540672 244.2520206 C-95.56753785 230.16323208 -95.57064261 216.07457544 -95.58908176 201.9857893 C-95.61052961 185.59067715 -95.61889235 169.19564321 -95.60663271 152.80051899 C-95.60535863 151.04938922 -95.60410114 149.29825943 -95.60286045 147.54712963 C-95.60224335 146.6857345 -95.60162625 145.82433938 -95.60099044 144.93684137 C-95.59754927 138.89183847 -95.60333919 132.84688553 -95.61277866 126.80189037 C-95.62404365 119.42633277 -95.62086466 112.05094526 -95.59965569 104.67540693 C-95.58920538 100.91850497 -95.5849193 97.1618857 -95.5982523 93.40498638 C-95.65521989 75.90644406 -95.67813748 59.95300029 -87.25509739 44.14789867 C-86.91180393 43.48290356 -86.56851048 42.81790844 -86.21481419 42.13276196 C-83.38024407 36.78965924 -80.04507371 32.08135468 -76.06759739 27.52289867 C-74.90937473 26.07076977 -74.90937473 26.07076977 -73.72775364 24.58930492 C-65.87114372 15.17729559 -54.51356468 8.58351602 -43.06759739 4.52289867 C-42.1979636 4.18954762 -41.32832981 3.85619656 -40.43234348 3.51274395 C-27.29273032 -0.76867696 -13.66582299 -0.04849913 0 0 Z M-51.31759739 49.83539867 C-62.02081589 62.35091513 -63.22382118 76.67195172 -63.20131016 92.45130444 C-63.20357571 93.62588498 -63.20584127 94.80046553 -63.20817548 96.01063943 C-63.21338735 99.2488713 -63.21416437 102.487068 -63.2129811 105.7253027 C-63.21277614 109.22645237 -63.21830498 112.72759391 -63.22303867 116.22873974 C-63.23132501 123.07993179 -63.2340926 129.93111524 -63.23465105 136.78231189 C-63.23512717 142.35454618 -63.23718667 147.92677764 -63.24035168 153.49901104 C-63.24915272 169.3171937 -63.25377191 185.13536959 -63.2530212 200.95355472 C-63.25298125 201.80530541 -63.25294129 202.6570561 -63.25290012 203.53461742 C-63.25285924 204.38741493 -63.25281836 205.24021243 -63.25277624 206.11885229 C-63.25236992 219.93494305 -63.26193744 233.75100653 -63.27603849 247.56708941 C-63.29042217 261.77282494 -63.29730758 275.97854718 -63.29644471 290.18429017 C-63.29611343 298.15189501 -63.2988302 306.11947126 -63.30962276 314.08706951 C-63.318754 320.87135883 -63.32088154 327.65560659 -63.31411334 334.43989941 C-63.31086135 337.89670642 -63.31074332 341.35343382 -63.31946659 344.81023312 C-63.32721728 348.56907849 -63.32252122 352.32771722 -63.31483555 356.08655834 C-63.31997911 357.16314543 -63.32512267 358.23973253 -63.3304221 359.34894347 C-63.25323336 376.52879737 -60.11096007 390.18084862 -47.96603489 402.68696117 C-34.99195946 414.92751997 -20.22897815 416.68099194 -3.13919163 416.65661144 C-1.37732081 416.66000978 -1.37732081 416.66000978 0.42014337 416.66347677 C3.65837524 416.66868864 6.89657193 416.66946566 10.13480663 416.66828239 C13.6359563 416.66807742 17.13709784 416.67360627 20.63824368 416.67833996 C27.48943573 416.6866263 34.34061918 416.68939388 41.19181582 416.68995234 C46.76405011 416.69042845 52.33628158 416.69248796 57.90851498 416.69565296 C73.72669764 416.704454 89.54487353 416.70907319 105.36305866 416.70832249 C106.6406847 416.70826255 106.6406847 416.70826255 107.94412136 416.70820141 C109.22331762 416.70814009 109.22331762 416.70814009 110.52835622 416.70807753 C124.34444698 416.7076712 138.16051047 416.71723873 151.97659335 416.73133978 C166.18232887 416.74572345 180.38805112 416.75260886 194.59379411 416.751746 C202.56139895 416.75141472 210.52897519 416.75413148 218.49657345 416.76492405 C225.28086277 416.77405529 232.06511053 416.77618283 238.84940335 416.76941463 C242.30621036 416.76616263 245.76293775 416.7660446 249.21973705 416.77476788 C252.97858242 416.78251856 256.73722116 416.77782251 260.49606228 416.77013683 C261.57264937 416.7752804 262.64923646 416.78042396 263.75844741 416.78572339 C280.93830131 416.70853464 294.59035256 413.56626136 307.09646511 401.42133617 C319.3370239 388.44726075 321.09049588 373.68427943 321.06611538 356.59449291 C321.06838094 355.41991236 321.07064649 354.24533182 321.0729807 353.03515792 C321.07819258 349.79692605 321.0789696 346.55872935 321.07778633 343.32049465 C321.07758136 339.81934498 321.0831102 336.31820344 321.08784389 332.81705761 C321.09613023 325.96586556 321.09889782 319.11468211 321.09945627 312.26348546 C321.09993239 306.69125117 321.10199189 301.1190197 321.1051569 295.54678631 C321.11395794 279.72860365 321.11857713 263.91042776 321.11782642 248.09224263 C321.11778647 247.24049194 321.11774651 246.38874124 321.11770535 245.51117992 C321.11766446 244.65838242 321.11762358 243.80558491 321.11758146 242.92694506 C321.11717514 229.1108543 321.12674266 215.29479081 321.14084371 201.47870794 C321.15522739 187.27297241 321.1621128 173.06725017 321.16124994 158.86150718 C321.16091866 150.89390234 321.16363542 142.92632609 321.17442799 134.95872784 C321.18355923 128.17443852 321.18568677 121.39019076 321.17891856 114.60589793 C321.17566657 111.14909093 321.17554854 107.69236353 321.18427181 104.23556423 C321.1920225 100.47671886 321.18732645 96.71808013 321.17964077 92.95923901 C321.18735611 91.34435837 321.18735611 91.34435837 321.19522732 89.69685388 C321.11803858 72.51699997 317.9757653 58.86494872 305.83084011 46.35883617 C292.70721215 33.97718011 278.16630561 32.36446405 260.88374233 32.38918591 C259.70830736 32.38692035 258.53287239 32.38465479 257.32181817 32.38232058 C254.08584562 32.37711453 250.84990834 32.37633067 247.61393297 32.37751496 C244.11348255 32.37772014 240.61304023 32.37218911 237.11259365 32.36745739 C230.26488081 32.35917597 223.41717659 32.3564037 216.56945916 32.35584501 C211.0001092 32.35536872 205.43076207 32.35330831 199.861413 32.35014439 C184.04913849 32.34134513 168.23687075 32.33672394 152.42459377 32.33747486 C151.57340848 32.33751482 150.72222319 32.33755477 149.84524441 32.33759594 C148.5668964 32.33765726 148.5668964 32.33765726 147.26272319 32.33771982 C133.45316253 32.33812622 119.64362914 32.32855631 105.83407637 32.31445757 C91.63282923 32.30007404 77.43159538 32.29318846 63.23034078 32.29405135 C55.26610429 32.29438261 47.30189641 32.29166676 39.33766651 32.2808733 C32.55706121 32.27174231 25.77649748 32.26961436 18.99588867 32.27638272 C15.54109996 32.27963468 12.08639091 32.27975285 8.63160992 32.27102947 C4.87500755 32.26327876 1.11861193 32.26797483 -2.63798618 32.27566051 C-4.25184364 32.26794517 -4.25184364 32.26794517 -5.89830428 32.26007396 C-24.39139825 32.34321316 -38.44977339 36.19646911 -51.31759739 49.83539867 Z " fill="#000000" transform="translate(127.06759738922119,31.47710132598877)"/>
<path d="M0 0 C4.65793922 2.16261464 7.96503536 5.24533221 10 10 C10.58512499 13.82125652 10.53972086 17.60324806 10.50793457 21.46289062 C10.51417453 22.62351265 10.5204145 23.78413467 10.52684355 24.97992706 C10.54002301 28.19304133 10.53530024 31.40554954 10.52289867 34.61864853 C10.51384211 38.08702545 10.52782088 41.55532094 10.53881836 45.02368164 C10.55660178 51.81483784 10.55276445 58.60581717 10.5411678 65.39698029 C10.53213303 70.91644237 10.53090966 76.4358549 10.53526306 81.95532227 C10.53587599 82.74097958 10.53648893 83.5266369 10.53712043 84.33610201 C10.53839934 85.93216643 10.53969619 87.52823084 10.5410108 89.12429523 C10.55241607 104.08944405 10.53930373 119.05449484 10.51780933 134.01962757 C10.49993838 146.8594883 10.5030425 159.69920438 10.52148438 172.5390625 C10.54289203 187.45077649 10.55131744 202.36240457 10.53903532 217.27413177 C10.53776113 218.86431375 10.53650365 220.45449573 10.53526306 222.04467773 C10.53464596 222.82707085 10.53402886 223.60946397 10.53339306 224.41556597 C10.52993984 229.92818801 10.53576788 235.44075554 10.54518127 240.95336914 C10.55640149 247.67174608 10.55336086 254.38993609 10.5320583 261.10829163 C10.52154802 264.53593229 10.51742529 267.96326132 10.53065491 271.39089966 C10.54155539 275.10661556 10.52791142 278.82144992 10.50793457 282.53710938 C10.51685746 283.62056892 10.52578034 284.70402847 10.53497362 285.82032013 C10.47160512 291.88034101 10.03378399 295.38236227 6 300 C2.18069828 303.62833663 -0.88279006 304.31000458 -6 304.5 C-11.11720994 304.31000458 -14.18069828 303.62833663 -18 300 C-22.7850865 294.52231552 -22.56619365 289.61120547 -22.50793457 282.53710938 C-22.51417453 281.37648735 -22.5204145 280.21586533 -22.52684355 279.02007294 C-22.54002301 275.80695867 -22.53530024 272.59445046 -22.52289867 269.38135147 C-22.51384211 265.91297455 -22.52782088 262.44467906 -22.53881836 258.97631836 C-22.55660178 252.18516216 -22.55276445 245.39418283 -22.5411678 238.60301971 C-22.53213303 233.08355763 -22.53090966 227.5641451 -22.53526306 222.04467773 C-22.53587599 221.25902042 -22.53648893 220.4733631 -22.53712043 219.66389799 C-22.53839934 218.06783357 -22.53969619 216.47176916 -22.5410108 214.87570477 C-22.55241607 199.91055595 -22.53930373 184.94550516 -22.51780933 169.98037243 C-22.49993838 157.1405117 -22.5030425 144.30079562 -22.52148438 131.4609375 C-22.54289203 116.54922351 -22.55131744 101.63759543 -22.53903532 86.72586823 C-22.53776113 85.13568625 -22.53650365 83.54550427 -22.53526306 81.95532227 C-22.53433741 80.78173259 -22.53433741 80.78173259 -22.53339306 79.58443403 C-22.52993984 74.07181199 -22.53576788 68.55924446 -22.54518127 63.04663086 C-22.55640149 56.32825392 -22.55336086 49.61006391 -22.5320583 42.89170837 C-22.52154802 39.46406771 -22.51742529 36.03673868 -22.53065491 32.60910034 C-22.54155539 28.89338444 -22.52791142 25.17855008 -22.50793457 21.46289062 C-22.51685746 20.37943108 -22.52578034 19.29597153 -22.53497362 18.17967987 C-22.47160512 12.11965899 -22.03378399 8.61763773 -18 4 C-12.72867143 -1.00776214 -6.89190982 -0.92775709 0 0 Z " fill="#000000" transform="translate(374,112)"/>
<path d="M0 0 C4.96739274 2.30628949 7.38721575 5.24092229 10 10 C10.55970347 13.01772238 10.54068363 15.97061908 10.50793457 19.03320312 C10.51417453 19.9324778 10.5204145 20.83175247 10.52684355 21.75827789 C10.54277553 24.76620338 10.53016834 27.77331875 10.51757812 30.78125 C10.52299914 32.93986483 10.53012168 35.09847596 10.53881836 37.25708008 C10.55705693 43.11653714 10.54998182 48.97571256 10.53730202 54.83517456 C10.52717721 60.96629599 10.53656626 67.09739325 10.54284668 73.22851562 C10.55012457 83.52478364 10.54053157 93.8209369 10.52148438 104.1171875 C10.49971546 116.02221117 10.50676672 127.92696082 10.52879 139.83197784 C10.54693986 150.0520894 10.54950431 160.27211844 10.53903532 170.49224091 C10.53279816 176.59684236 10.53197101 182.70131501 10.54518127 188.8059082 C10.55673301 194.54500154 10.54872601 200.28374148 10.52560425 206.02279663 C10.5203136 208.12950046 10.52183698 210.23623401 10.53065491 212.34292603 C10.54157965 215.21795162 10.52788354 218.09184358 10.50793457 220.96679688 C10.51685746 221.80123573 10.52578034 222.63567459 10.53497362 223.49539948 C10.46352532 228.80106746 9.47849045 231.76939371 6 236 C2.18069828 239.62833663 -0.88279006 240.31000458 -6 240.5 C-11.11720994 240.31000458 -14.18069828 239.62833663 -18 236 C-22.17604408 230.92101571 -22.57524466 227.26141397 -22.50793457 220.96679688 C-22.51729451 219.61788486 -22.51729451 219.61788486 -22.52684355 218.24172211 C-22.54277553 215.23379662 -22.53016834 212.22668125 -22.51757812 209.21875 C-22.52299914 207.06013517 -22.53012168 204.90152404 -22.53881836 202.74291992 C-22.55705693 196.88346286 -22.54998182 191.02428744 -22.53730202 185.16482544 C-22.52717721 179.03370401 -22.53656626 172.90260675 -22.54284668 166.77148438 C-22.55012457 156.47521636 -22.54053157 146.1790631 -22.52148438 135.8828125 C-22.49971546 123.97778883 -22.50676672 112.07303918 -22.52879 100.16802216 C-22.54693986 89.9479106 -22.54950431 79.72788156 -22.53903532 69.50775909 C-22.53279816 63.40315764 -22.53197101 57.29868499 -22.54518127 51.1940918 C-22.55673301 45.45499846 -22.54872601 39.71625852 -22.52560425 33.97720337 C-22.5203136 31.87049954 -22.52183698 29.76376599 -22.53065491 27.65707397 C-22.54157965 24.78204838 -22.52788354 21.90815642 -22.50793457 19.03320312 C-22.5213189 17.78154484 -22.5213189 17.78154484 -22.53497362 16.50460052 C-22.46352532 11.19893254 -21.47849045 8.23060629 -18 4 C-12.72867143 -1.00776214 -6.89190982 -0.92775709 0 0 Z " fill="#000000" transform="translate(262,176)"/>
<path d="M0 0 C4.97893375 2.31164781 7.29524243 5.292396 10 10 C10.50336456 13.15783691 10.50336456 13.15783691 10.50793457 16.60351562 C10.51921387 17.91570068 10.53049316 19.22788574 10.54211426 20.57983398 C10.5343381 22.02197488 10.52614549 23.46411358 10.51757812 24.90625 C10.5230019 26.43433295 10.530126 27.96241066 10.53881836 29.49047852 C10.55702444 33.63102079 10.54999557 37.77116355 10.53730202 41.91171265 C10.52716021 46.24909526 10.53657097 50.58644414 10.54284668 54.92382812 C10.55011965 62.20709359 10.54054461 69.4901967 10.52148438 76.7734375 C10.49971624 85.18847922 10.50676787 93.60313326 10.52879 102.01816559 C10.54695401 109.24892744 10.54949744 116.47957273 10.53903532 123.71035004 C10.53280587 128.02644707 10.53194959 132.342362 10.54518127 136.65844727 C10.5567538 140.71664538 10.54868885 144.77434467 10.52560425 148.83248901 C10.52032459 150.31996839 10.52181827 151.80748989 10.53065491 153.29495239 C10.5416215 155.32878092 10.52541659 157.36270141 10.50793457 159.39648438 C10.50642647 160.53355835 10.50491837 161.67063232 10.50336456 162.84216309 C9.70486479 167.8515186 7.11029271 170.94522192 3.5 174.375 C-1.66500009 176.77303575 -6.4002288 176.75381535 -12 176 C-16.97893375 173.68835219 -19.29524243 170.707604 -22 166 C-22.50336456 162.84216309 -22.50336456 162.84216309 -22.50793457 159.39648438 C-22.51921387 158.08429932 -22.53049316 156.77211426 -22.54211426 155.42016602 C-22.5343381 153.97802512 -22.52614549 152.53588642 -22.51757812 151.09375 C-22.5230019 149.56566705 -22.530126 148.03758934 -22.53881836 146.50952148 C-22.55702444 142.36897921 -22.54999557 138.22883645 -22.53730202 134.08828735 C-22.52716021 129.75090474 -22.53657097 125.41355586 -22.54284668 121.07617188 C-22.55011965 113.79290641 -22.54054461 106.5098033 -22.52148438 99.2265625 C-22.49971624 90.81152078 -22.50676787 82.39686674 -22.52879 73.98183441 C-22.54695401 66.75107256 -22.54949744 59.52042727 -22.53903532 52.28964996 C-22.53280587 47.97355293 -22.53194959 43.657638 -22.54518127 39.34155273 C-22.5567538 35.28335462 -22.54868885 31.22565533 -22.52560425 27.16751099 C-22.52032459 25.68003161 -22.52181827 24.19251011 -22.53065491 22.70504761 C-22.5416215 20.67121908 -22.52541659 18.63729859 -22.50793457 16.60351562 C-22.50567242 14.89790466 -22.50567242 14.89790466 -22.50336456 13.15783691 C-21.70486479 8.1484814 -19.11029271 5.05477808 -15.5 1.625 C-10.33499991 -0.77303575 -5.5997712 -0.75381535 0 0 Z " fill="#000000" transform="translate(150,240)"/>
</svg>
