<?xml version="1.0" standalone="no"?>
<!DOCTYPE svg PUBLIC "-//W3C//DTD SVG 20010904//EN"
 "http://www.w3.org/TR/2001/REC-SVG-20010904/DTD/svg10.dtd">
<svg version="1.0" xmlns="http://www.w3.org/2000/svg"
 width="512.000000pt" height="512.000000pt" viewBox="0 0 512.000000 512.000000"
 preserveAspectRatio="xMidYMid meet">

<g transform="translate(0.000000,512.000000) scale(0.100000,-0.100000)"
fill="#000000" stroke="none">
<path d="M4235 5113 c-622 -51 -1150 -235 -1650 -574 -226 -153 -517 -419
-675 -616 l-65 -81 -80 -6 c-341 -30 -638 -113 -903 -251 -143 -75 -248 -152
-373 -275 -247 -243 -402 -535 -466 -880 -9 -52 -17 -168 -20 -297 l-5 -213
621 0 c679 0 705 -2 841 -59 173 -72 329 -228 401 -401 57 -136 59 -162 59
-840 l0 -620 163 0 c240 0 396 23 584 85 409 136 742 425 933 810 133 267 207
544 235 870 l7 80 76 60 c112 89 346 324 450 453 413 509 655 1085 734 1747 6
55 12 190 12 300 1 192 0 203 -26 273 -38 106 -83 177 -164 257 -83 83 -198
146 -310 170 -63 13 -264 18 -379 8z m366 -458 c23 -16 53 -50 67 -75 23 -44
24 -50 18 -195 -21 -562 -176 -1067 -454 -1485 -131 -196 -204 -283 -411 -491
-269 -268 -487 -440 -852 -671 -189 -120 -630 -354 -643 -341 -3 4 -6 14 -6
24 0 36 -53 186 -97 274 -150 301 -431 532 -743 610 -36 9 -71 18 -78 20 -9 3
12 53 67 162 278 547 574 967 940 1334 207 206 294 280 489 409 393 262 813
401 1377 454 22 2 95 3 162 2 118 -1 123 -2 164 -31z m-3137 -1322 c-158 -242
-363 -611 -493 -890 l-43 -93 -240 0 -240 0 7 48 c9 67 58 209 101 294 121
240 322 435 565 547 46 21 136 55 199 76 63 20 120 38 125 40 32 11 37 4 19
-22z m1877 -1935 c-104 -353 -255 -580 -496 -750 -128 -91 -325 -176 -447
-193 l-48 -7 0 240 0 240 93 43 c239 112 581 298 802 438 61 38 112 68 114 66
2 -2 -6 -37 -18 -77z"/>
<path d="M3205 3830 c-163 -33 -301 -138 -373 -285 -42 -85 -55 -138 -55 -235
-1 -242 152 -446 388 -516 70 -21 208 -23 275 -4 332 91 496 462 338 764 -41
78 -146 183 -224 224 -104 54 -237 74 -349 52z"/>
<path d="M751 1479 c-140 -25 -291 -105 -371 -197 -86 -98 -183 -336 -254
-619 -58 -231 -135 -647 -123 -660 13 -12 429 65 660 123 197 49 335 97 467
162 93 45 127 68 180 121 295 296 214 817 -155 1003 -118 60 -286 88 -404 67z
m157 -421 c97 -24 173 -140 156 -236 -13 -76 -43 -111 -128 -154 -86 -43 -286
-113 -355 -124 l-44 -7 7 44 c11 70 81 269 124 355 41 82 71 109 136 125 45
10 52 10 104 -3z"/>
</g>
</svg>
