<?xml version="1.0" standalone="no"?>
<!DOCTYPE svg PUBLIC "-//W3C//DTD SVG 20010904//EN"
 "http://www.w3.org/TR/2001/REC-SVG-20010904/DTD/svg10.dtd">
<svg version="1.0" xmlns="http://www.w3.org/2000/svg"
 width="512.000000pt" height="512.000000pt" viewBox="0 0 512.000000 512.000000"
 preserveAspectRatio="xMidYMid meet">

<g transform="translate(0.000000,512.000000) scale(0.100000,-0.100000)"
fill="#000000" stroke="none">
<path d="M2310 5108 c-203 -18 -431 -68 -633 -138 -875 -301 -1472 -1023
-1631 -1970 -36 -215 -50 -394 -42 -550 36 -738 378 -1414 950 -1879 198 -162
489 -327 730 -416 130 -48 370 -108 521 -131 148 -22 532 -26 670 -6 418 60
766 191 1097 412 686 458 1106 1200 1144 2021 13 274 -47 674 -143 957 l-28
82 -145 -145 -145 -145 -141 0 -142 0 20 -62 c59 -187 94 -442 84 -615 -33
-591 -263 -1087 -659 -1420 -275 -230 -605 -375 -979 -428 -137 -20 -417 -19
-559 1 -571 79 -1047 384 -1346 859 -50 78 -138 270 -177 381 -65 190 -116
487 -116 674 1 402 150 829 407 1162 251 327 643 583 1043 683 188 47 297 58
520 52 220 -6 361 -28 518 -81 l72 -25 0 137 0 137 145 145 c80 80 145 148
145 152 0 18 -327 106 -495 132 -222 35 -471 44 -685 24z"/>
<path d="M3942 4797 l-312 -312 0 -275 0 -275 -482 -482 -483 -482 -54 10
c-116 22 -257 -27 -352 -121 -204 -203 -154 -540 99 -673 172 -91 365 -61 502
77 28 28 66 80 83 116 30 61 32 72 33 179 l1 113 479 479 479 479 275 0 275 0
313 313 c171 171 312 315 312 320 0 4 -189 7 -420 7 l-420 0 0 420 c0 231 -3
420 -8 420 -4 0 -148 -141 -320 -313z"/>
<path d="M2446 4059 c-479 -43 -874 -270 -1117 -639 -297 -451 -329 -1075 -81
-1566 88 -175 252 -370 411 -490 272 -205 683 -320 1024 -286 227 23 403 73
587 168 602 312 895 1024 715 1737 -10 37 -20 67 -24 67 -3 0 -131 -125 -283
-277 l-277 -278 -15 -86 c-63 -343 -282 -583 -611 -670 -114 -31 -315 -31
-438 -1 -272 67 -472 223 -587 456 -61 123 -81 202 -87 347 -11 250 59 441
220 607 147 151 325 232 587 267 44 5 56 16 325 285 l278 278 -54 16 c-90 26
-230 54 -304 61 -144 12 -172 12 -269 4z"/>
</g>
</svg>
