<?xml version="1.0" encoding="UTF-8"?>
<svg version="1.1" xmlns="http://www.w3.org/2000/svg" width="512" height="512">
<path d="M0 0 C0.67160156 0.37125 1.34320313 0.7425 2.03515625 1.125 C3.61296875 1.99125 3.61296875 1.99125 5.22265625 2.875 C17.04624297 12.33386937 20.47243754 26.03660141 25.34765625 39.875 C25.80633881 41.16937783 26.26532174 42.46364925 26.72460938 43.7578125 C27.83106482 46.87918154 28.93452351 50.0015741 30.03515625 53.125 C31.2407016 53.13308685 32.44624695 53.14117371 33.68832397 53.14950562 C45.07559742 53.22714869 56.46275406 53.31493334 67.8498745 53.41252708 C73.70344062 53.4623726 79.55698972 53.50870344 85.41064453 53.546875 C91.06470299 53.58387643 96.71861482 53.63027616 102.37254715 53.68306351 C104.52455689 53.70152872 106.67659797 53.7166654 108.82865524 53.72834396 C111.85385757 53.74534174 114.87872981 53.7744084 117.90380859 53.80615234 C118.78422821 53.80831253 119.66464783 53.81047272 120.57174683 53.81269836 C131.3312521 53.9559749 142.07413455 55.73952522 150.30078125 63.171875 C156.18242541 69.48919651 161.06641283 76.71908559 161.24047852 85.59643555 C161.26042374 86.49714279 161.28036896 87.39785004 161.30091858 88.32585144 C161.32598732 89.77910576 161.32598732 89.77910576 161.3515625 91.26171875 C161.38273415 92.75358452 161.38273415 92.75358452 161.41453552 94.27558899 C161.47995037 97.45448867 161.53887865 100.63347134 161.59765625 103.8125 C161.64084913 105.96680548 161.68446367 108.12110254 161.72851562 110.27539062 C161.83562351 115.55850588 161.93740498 120.84170379 162.03515625 126.125 C163.11764648 126.31255859 164.20013672 126.50011719 165.31542969 126.69335938 C166.75852597 126.95147416 168.20155639 127.20995731 169.64453125 127.46875 C170.7106665 127.65195801 170.7106665 127.65195801 171.79833984 127.83886719 C185.81509646 130.38151649 197.28278225 139.04221688 205.47265625 150.5625 C210.73201289 159.18286562 214.1665712 168.00697076 214.14868164 178.09667969 C214.14882767 178.7897673 214.14897369 179.48285492 214.14912415 180.19694519 C214.14842932 182.48028733 214.1406571 184.76354717 214.1328125 187.046875 C214.13094679 188.63299515 214.12952361 190.21911588 214.12852478 191.80523682 C214.12471163 195.97436115 214.11489162 200.1434505 214.1038208 204.31256104 C214.09358082 208.56904629 214.08902162 212.82553722 214.08398438 217.08203125 C214.07326827 225.42970353 214.05620629 233.77734741 214.03515625 242.125 C215.13601563 242.27050293 216.236875 242.41600586 217.37109375 242.56591797 C225.72862131 243.84115372 232.95519167 248.39049225 238.03515625 255.125 C242.41426515 262.59792091 244.18571145 268.55076245 244.2121582 277.21118164 C244.222015 278.60688889 244.222015 278.60688889 244.23207092 280.03079224 C244.25180789 283.11558107 244.26346976 286.20032111 244.2734375 289.28515625 C244.27751303 290.34008207 244.28158855 291.3950079 244.28578758 292.48190117 C244.30665376 298.06955647 244.320951 303.6571872 244.33032227 309.24487305 C244.34136514 315.00256868 244.37573921 320.75987555 244.41549397 326.51743412 C244.44170992 330.95542594 244.45001872 335.39332604 244.45360374 339.83138847 C244.45845976 341.95274914 244.47004547 344.07410599 244.48864174 346.1953907 C244.51313031 349.17492026 244.51204989 352.15345613 244.50512695 355.13305664 C244.51793701 355.99941238 244.53074707 356.86576813 244.54394531 357.75837708 C244.45794635 367.9832104 240.24598866 376.92792872 233.03515625 384.125 C228.40565156 387.70443492 224.0777978 389.97527362 218.35888672 391.19946289 C217.54902313 391.37433731 216.73915955 391.54921173 215.90475464 391.72938538 C215.28778717 391.8599382 214.6708197 391.99049103 214.03515625 392.125 C214.0440387 392.99815353 214.05292114 393.87130707 214.06207275 394.7709198 C214.14265416 403.05200481 214.20334006 411.33295568 214.24240494 419.6143446 C214.26316469 423.87059114 214.29126607 428.12651021 214.33691406 432.38256836 C214.38079133 436.49990815 214.40438034 440.61693556 214.41466522 444.73449135 C214.42198231 446.29517844 214.43626782 447.85585096 214.45807648 449.41640282 C214.69980515 467.45235035 209.97307878 481.5086572 197.515625 494.80078125 C190.4353536 501.4350513 182.25473565 505.34567785 173.03515625 508.125 C172.46111571 508.30221704 171.88707517 508.47943408 171.29563946 508.66202134 C168.31746984 509.27199224 165.49828668 509.25462041 162.45726871 509.25922108 C161.46342405 509.26274942 161.46342405 509.26274942 160.44950172 509.26634905 C158.21957836 509.27302926 155.98971341 509.27258112 153.75978088 509.27217102 C152.14867102 509.27547027 150.53756199 509.27919597 148.92645401 509.2833125 C144.4911712 509.29333396 140.05590193 509.29704954 135.6206094 509.29970181 C130.83987612 509.30360451 126.05915356 509.31318298 121.27842712 509.32191467 C109.72783705 509.34168161 98.17724609 509.35174627 86.62664333 509.36064246 C81.18659543 509.3650256 75.74654851 509.3703924 70.30650139 509.37563133 C52.22061267 509.39264499 34.13472457 509.40713846 16.04882908 509.41438007 C11.35489972 509.41628996 6.66097036 509.41821029 1.96704102 509.42016602 C0.80039207 509.42064976 -0.36625688 509.4211335 -1.56825883 509.4216319 C-20.46090936 509.42992953 -39.35349651 509.45526134 -58.24611937 509.48774669 C-77.64523293 509.52083077 -97.04431431 509.53883012 -116.44345623 509.54202431 C-127.33428155 509.54418832 -138.22501449 509.55292087 -149.1158123 509.57848549 C-158.39255121 509.600211 -167.66917532 509.60823383 -176.94593679 509.59851871 C-181.67666235 509.59397919 -186.40715112 509.59583992 -191.13784409 509.61528015 C-195.47527402 509.6329498 -199.81229511 509.63188341 -204.14972962 509.61638286 C-205.71242012 509.61401252 -207.27513922 509.61830032 -208.83778613 509.63021151 C-226.7191705 509.75798353 -240.52990913 504.87623004 -253.640625 492.609375 C-261.6810971 484.01485356 -268.07487414 472.04564533 -268.09906483 460.07482147 C-268.10352267 459.05013937 -268.10798051 458.02545726 -268.11257344 456.96972418 C-268.11238908 455.84562218 -268.11220472 454.72152019 -268.11201477 453.56335449 C-268.11569146 452.36783919 -268.11936815 451.17232388 -268.12315625 449.94058084 C-268.13227543 446.62070907 -268.13689111 443.3008867 -268.13954556 439.9810071 C-268.14345227 436.40071121 -268.15303047 432.82042959 -268.16175842 429.24014282 C-268.18151418 420.59206921 -268.19158867 411.94399445 -268.20048621 403.29590392 C-268.20487124 399.22101627 -268.21023756 395.14612991 -268.21547508 391.07124329 C-268.23248773 377.52073181 -268.24698062 363.97022114 -268.25422382 350.41970062 C-268.25613365 346.90382384 -268.25805399 343.38794707 -268.26000977 339.87207031 C-268.26049351 338.9982393 -268.26097725 338.12440829 -268.26147565 337.22409755 C-268.26977112 323.07719167 -268.2950997 308.93037048 -268.32759044 294.78350157 C-268.3606932 280.25135582 -268.37867556 265.71925306 -268.38186806 251.18706942 C-268.38403036 243.03102651 -268.39273772 234.87510705 -268.41832924 226.71910095 C-268.44008038 219.77104126 -268.4480651 212.823135 -268.43836246 205.87504512 C-268.43383024 202.33324468 -268.43564031 198.79176049 -268.4551239 195.25000381 C-268.47611527 191.4007112 -268.46572993 187.55184958 -268.45259094 183.70251465 C-268.46356019 182.59625843 -268.47452943 181.4900022 -268.48583108 180.35022306 C-268.35293107 164.15694067 -261.29005763 151.29768575 -249.96484375 140.125 C-240.53915045 131.72623048 -230.2582606 128.30380443 -217.96484375 126.125 C-218.2071875 125.46604736 -218.44953125 124.80709473 -218.69921875 124.12817383 C-229.26183446 95.04797245 -229.26183446 95.04797245 -223.28515625 80.69140625 C-216.76506069 68.01772938 -206.49617973 62.88359465 -193.46484375 58.359375 C-191.61337621 57.69898872 -189.76190973 57.03859943 -187.91048717 56.37808704 C-185.94938935 55.68107032 -183.9862515 54.99012499 -182.02236938 54.30099487 C-177.89737644 52.85328187 -173.77860633 51.38842515 -169.66088867 49.92016602 C-168.26207892 49.42155922 -166.86325993 48.92297834 -165.46443176 48.42442322 C-164.77089914 48.17722975 -164.07736652 47.93003628 -163.36281776 47.6753521 C-161.2537304 46.92432766 -159.14406713 46.17494319 -157.03422546 45.42604065 C-144.74788045 41.0631985 -132.50704348 36.5816048 -120.27734375 32.0625 C-101.80060976 25.24791363 -83.29555012 18.51334582 -64.77734375 11.8125 C-63.51860529 11.35692415 -62.25986708 10.90134758 -61.00112915 10.44577026 C-51.16347972 6.88595001 -51.16347972 6.88595001 -46.93788147 5.36593628 C-42.44094879 3.74831856 -37.94690003 2.12876868 -33.47900391 0.43237305 C-22.2638456 -3.77275242 -11.21653856 -5.39292672 0 0 Z M-28.9921875 31.578125 C-29.98728333 31.94507477 -30.98237915 32.31202454 -32.00762939 32.69009399 C-35.30918461 33.90963511 -38.60561812 35.14246951 -41.90234375 36.375 C-44.24024022 37.24082978 -46.57854562 38.10555611 -48.91723633 38.96923828 C-52.57176382 40.31915863 -56.2259546 41.66993705 -59.87882996 43.02432251 C-71.49034605 47.32936604 -83.1293097 51.55696489 -94.77264404 55.77502441 C-114.9974919 63.10554103 -135.19959459 70.49759118 -155.38739395 77.92942047 C-157.25750137 78.61769718 -159.1278188 79.30540318 -160.99813843 79.99310303 C-164.48371249 81.27508769 -167.96854326 82.55907088 -171.453125 83.84375 C-172.47358917 84.21891754 -173.49405334 84.59408508 -174.54544067 84.98062134 C-179.22919637 86.71016671 -183.90417905 88.46234155 -188.55932617 90.26757812 C-189.36037277 90.57699341 -190.16141937 90.88640869 -190.98674011 91.2052002 C-193.13520491 92.06666986 -193.13520491 92.06666986 -194.96484375 94.125 C-194.73987591 100.96777179 -191.89736225 107.1814767 -189.46484375 113.5 C-189.04847656 114.60472656 -188.63210937 115.70945312 -188.203125 116.84765625 C-186.66892658 121.83075789 -186.66892658 121.83075789 -183.96484375 126.125 C-182.15523504 126.22141497 -180.34182247 126.24687398 -178.52964783 126.24525452 C-176.76061348 126.24731651 -176.76061348 126.24731651 -174.95584106 126.24942017 C-173.65033295 126.24582489 -172.34482483 126.24222961 -170.99975586 126.23852539 C-169.62031557 126.23824352 -168.24087514 126.23840125 -166.86143494 126.2389679 C-163.10540257 126.23925588 -159.34940186 126.23335905 -155.59337687 126.22639394 C-151.6722433 126.22016051 -147.75110908 126.21955661 -143.82997131 126.21836853 C-136.39972764 126.21525518 -128.96949861 126.20704175 -121.5392614 126.19701904 C-113.08232737 126.18585801 -104.62539265 126.18034748 -96.1684531 126.17532361 C-78.7672415 126.16485914 -61.36604417 126.14725963 -43.96484375 126.125 C-43.9508252 124.15092163 -43.9508252 124.15092163 -43.93652344 122.13696289 C-43.89644386 117.2220765 -43.83063539 112.30780427 -43.75732422 107.39331055 C-43.72921849 105.27229747 -43.70795259 103.15118168 -43.69384766 101.0300293 C-43.67227386 97.96870734 -43.62554955 94.90860692 -43.57421875 91.84765625 C-43.57299011 90.90978775 -43.57176147 89.97191925 -43.57049561 89.00563049 C-43.35892687 79.34645882 -39.64173266 71.12615283 -32.96484375 64.125 C-25.90025754 58.40484132 -19.08214111 56.0630429 -10.08984375 55 C-9.40148437 54.91363281 -8.713125 54.82726562 -8.00390625 54.73828125 C-6.324891 54.52840434 -4.64495327 54.32592913 -2.96484375 54.125 C-4.24952526 50.35175024 -5.54377824 46.58185315 -6.83984375 42.8125 C-7.38705078 41.2047168 -7.38705078 41.2047168 -7.9453125 39.56445312 C-8.29980469 38.53642578 -8.65429688 37.50839844 -9.01953125 36.44921875 C-9.34421387 35.50135498 -9.66889648 34.55349121 -10.00341797 33.5769043 C-10.94073111 30.93076974 -10.94073111 30.93076974 -12.96484375 28.125 C-18.68201534 27.20202849 -23.7366464 29.59228556 -28.9921875 31.578125 Z M-12.96484375 87.125 C-17.07715589 99.46193641 -13.96484375 113.1207272 -13.96484375 126.125 C33.88515625 126.125 81.73515625 126.125 131.03515625 126.125 C133.02030467 105.42030205 133.02030467 105.42030205 129.03515625 86.125 C126.43069961 84.82277168 124.53144609 84.99615465 121.61378479 84.99128723 C119.88705536 84.98488976 119.88705536 84.98488976 118.1254425 84.97836304 C116.85629501 84.97881622 115.58714752 84.97926941 114.27954102 84.97973633 C112.93437608 84.97674538 111.58921201 84.973343 110.24404907 84.96955872 C106.58498729 84.9607082 102.92594887 84.95838017 99.26687741 84.95774293 C96.21507422 84.95679463 93.1632765 84.95311726 90.11147541 84.94957083 C82.91309994 84.94142236 75.71473698 84.93898697 68.51635742 84.93969727 C61.08414594 84.94029825 53.652007 84.92974328 46.21981388 84.9139536 C39.84440441 84.90089037 33.46901868 84.89551285 27.09359592 84.89615268 C23.28339048 84.89640801 19.47324948 84.89353724 15.66305733 84.88297462 C12.08029433 84.87331399 8.49765766 84.87320037 4.91489029 84.88049126 C2.97005352 84.88204034 1.02521682 84.87367625 -0.91960144 84.86505127 C-2.65056061 84.871343 -2.65056061 84.871343 -4.41648865 84.87776184 C-5.42141074 84.87721707 -6.42633284 84.87667231 -7.46170712 84.87611103 C-10.213986 84.95190112 -10.213986 84.95190112 -12.96484375 87.125 Z M-232.96484375 167.125 C-238.40790291 175.15548439 -238.11261525 183.86528343 -238.09855652 193.23239136 C-238.10082208 194.34274848 -238.10308763 195.4531056 -238.10542184 196.59710991 C-238.11174593 200.31328571 -238.1109335 204.02942489 -238.11010742 207.74560547 C-238.11309988 210.41180558 -238.11647438 213.07800284 -238.12028503 215.74420166 C-238.12857846 222.23203676 -238.13133927 228.71986278 -238.13189741 235.20770274 C-238.13237314 240.48253643 -238.13443071 245.75736712 -238.13759804 251.03219986 C-238.14640059 265.9970611 -238.15101797 280.96191517 -238.15026756 295.92677902 C-238.15022761 296.73291948 -238.15018765 297.53905994 -238.15014648 298.36962891 C-238.1501056 299.17675682 -238.15006472 299.98388473 -238.1500226 300.81547107 C-238.14961612 313.89720787 -238.15918736 326.97891589 -238.17328485 340.06064437 C-238.18765573 353.502409 -238.19455466 366.94415959 -238.19369107 380.38593209 C-238.19335938 387.92866553 -238.19609451 395.47136879 -238.20686913 403.01409531 C-238.21598343 409.435498 -238.2181417 415.85685683 -238.2113597 422.2782632 C-238.20809935 425.55229299 -238.20911168 428.82622136 -238.21671295 432.10024643 C-238.22443051 435.65478643 -238.21978941 439.2091061 -238.21208191 442.76364136 C-238.21722547 443.79098888 -238.22236904 444.81833641 -238.22766846 445.87681568 C-238.179332 455.97848287 -236.8375126 464.36505005 -229.96484375 472.125 C-224.42352674 476.52453335 -219.71478327 478.24777219 -212.62656307 478.26201439 C-211.97776201 478.26466622 -211.32896095 478.26731804 -210.66049924 478.27005023 C-208.47140053 478.27775186 -206.28235783 478.27830273 -204.09324646 478.27890015 C-202.51385978 478.28291421 -200.93447413 478.28735234 -199.35508972 478.2921797 C-195.00297031 478.30415748 -190.65086198 478.30979645 -186.2987293 478.31436086 C-181.60937799 478.32031245 -176.92003998 478.33192346 -172.23069763 478.34265137 C-160.89921403 478.36718639 -149.56772602 478.38180458 -138.23622403 478.39471143 C-135.03619449 478.3984227 -131.83616539 478.40239599 -128.63613629 478.4064641 C-108.76890288 478.43170104 -88.90166878 478.45375651 -69.03442287 478.46619225 C-64.43139582 478.469122 -59.82836879 478.47208365 -55.2253418 478.47509766 C-53.5092271 478.47621673 -53.5092271 478.47621673 -51.75844342 478.47735842 C-33.22581152 478.49001154 -14.69327556 478.52323329 3.83931149 478.56489949 C22.86208415 478.60731746 41.88480769 478.63088717 60.90762752 478.63611281 C71.58992286 478.63952718 82.27206828 478.65128548 92.95431709 478.68421555 C102.05221899 478.71221536 111.14994025 478.72321568 120.2478819 478.71202008 C124.8891717 478.70683319 129.5300832 478.70972222 134.17131805 478.73448563 C138.4235895 478.75698409 142.67521104 478.75623382 146.92749392 478.73728175 C148.46257421 478.73448256 149.99769863 478.74007591 151.532708 478.75509469 C160.21901369 478.83485939 167.80305263 478.48165955 175.03515625 473.125 C182.10671634 465.64559673 184.16944947 457.92867632 184.14868164 447.75244141 C184.14856834 445.89119125 184.14856834 445.89119125 184.14845276 443.99234009 C184.14334738 442.65374714 184.1381314 441.31515461 184.1328125 439.9765625 C184.13094531 438.59508312 184.12952283 437.21360308 184.12852478 435.8321228 C184.12472327 432.21211897 184.11491341 428.59215583 184.1038208 424.97216797 C184.0935556 421.27181549 184.08901625 417.57145639 184.08398438 413.87109375 C184.07328883 406.62237736 184.0562411 399.3736944 184.03515625 392.125 C183.22908432 392.12135437 182.42301239 392.11770874 181.59251404 392.11395264 C173.9298145 392.07580611 166.26758696 392.01865762 158.60519314 391.94109726 C154.66752595 391.90188449 150.73007362 391.8695697 146.79223633 391.85400391 C142.97937457 391.83866186 139.16710464 391.80391549 135.35450935 391.75669098 C133.91280375 391.74205528 132.47101357 391.73396945 131.02923393 391.73311615 C110.87474584 391.70923132 93.17107807 385.77908332 78.03515625 372.125 C77.3390625 371.52171875 76.64296875 370.9184375 75.92578125 370.296875 C64.05123478 359.34283601 56.0720819 342.4219119 54.81396484 326.28857422 C53.94333122 303.38164794 58.20330535 283.15116199 73.70703125 265.51171875 C91.75922696 247.00518926 113.72692148 242.14568295 138.8203125 241.80859375 C140.11714462 241.78781265 141.41397675 241.76703156 142.75010681 241.74562073 C146.16778716 241.69090181 149.58552243 241.64127524 153.0032959 241.59277344 C156.50289696 241.54218761 160.00242004 241.4866968 163.50195312 241.43164062 C170.34628636 241.32467464 177.19069031 241.2230978 184.03515625 241.125 C184.0817019 233.58782387 184.11713761 226.05066285 184.13878059 218.51337528 C184.14917339 215.01268971 184.16324915 211.51210319 184.18603516 208.01147461 C184.21212421 203.97769269 184.22166623 199.94401322 184.23046875 195.91015625 C184.24079132 194.66605484 184.25111389 193.42195343 184.26174927 192.14015198 C184.26306748 181.83834784 183.62477278 172.45989873 176.5703125 164.46484375 C167.99798915 156.25558351 156.78507836 156.68966007 145.62548828 156.74404907 C144.07305638 156.74058796 142.52062694 156.73582036 140.96820259 156.72986734 C136.72304291 156.71738991 132.4780866 156.72351282 128.23292637 156.73282599 C123.64662387 156.73962953 119.06035569 156.72912879 114.47406006 156.72088623 C105.49771422 156.70756062 96.52144373 156.71042142 87.54509497 156.71912415 C80.24850186 156.7259049 72.95192983 156.72681572 65.65533447 156.7235527 C64.61604077 156.723093 63.57674708 156.72263331 62.50595963 156.72215968 C60.39452028 156.72120048 58.28308093 156.72022784 56.17164159 156.7192419 C36.38212612 156.71069144 16.59265237 156.72051675 -3.19685626 156.736643 C-20.16966985 156.75004586 -37.14242189 156.74771767 -54.11523438 156.73388672 C-73.83492356 156.71782484 -93.5545762 156.71151538 -113.27427101 156.72072351 C-115.37785466 156.72167914 -117.48143831 156.72262225 -119.58502197 156.7235527 C-120.61997043 156.72401553 -121.6549189 156.72447836 -122.72122943 156.72495521 C-130.00733816 156.72754327 -137.29342367 156.72317806 -144.57952881 156.71611404 C-153.46131656 156.70769211 -162.34302479 156.70999381 -171.22480345 156.72595628 C-175.75465235 156.73382962 -180.28436875 156.73694655 -184.81421661 156.72700882 C-188.96431526 156.71804203 -193.11415911 156.72302733 -197.26423478 156.73894148 C-198.76208249 156.74228089 -200.25995191 156.74061417 -201.75778556 156.73331411 C-213.99956989 156.67824719 -224.5456412 157.38361322 -232.96484375 167.125 Z M95.0078125 287.453125 C86.24409539 299.32318936 83.61793978 311.591523 85.03515625 326.125 C87.67719456 337.52249261 94.36772831 347.47380958 104.03515625 354.125 C112.29181441 358.85811614 119.50970036 361.42598276 129.0222168 361.41552734 C130.3476651 361.42560318 130.3476651 361.42560318 131.69989014 361.43588257 C134.60727626 361.45481097 137.51443119 361.45878322 140.421875 361.4609375 C142.44635614 361.4673657 144.47083636 361.47409408 146.49531555 361.48110962 C150.73102983 361.49306705 154.96666261 361.49679168 159.20239258 361.49560547 C164.63676088 361.49540161 170.07061018 361.52278001 175.50485516 361.55714989 C179.68179238 361.57934692 183.85860286 361.58344534 188.03559303 361.58238602 C190.03992323 361.58474991 192.0442565 361.59361751 194.04852867 361.60905075 C196.84482117 361.62857854 199.63996961 361.62292662 202.4362793 361.61083984 C203.26698441 361.62207886 204.09768951 361.63331787 204.9535675 361.64489746 C209.3104097 361.59935611 209.3104097 361.59935611 213.04931641 359.57803345 C214.41539613 356.1788614 214.44536038 352.99628485 214.4074707 349.390625 C214.4129467 348.22895813 214.4129467 348.22895813 214.41853333 347.04382324 C214.42663032 344.48732482 214.41303607 341.93146193 214.3984375 339.375 C214.39791879 337.59667969 214.39843691 335.8183588 214.39994812 334.04003906 C214.39985843 330.31436596 214.38943658 326.58890942 214.37133789 322.86328125 C214.34865088 318.08822543 214.34810703 313.313486 214.35485554 308.53839111 C214.35819741 304.86667063 214.35156131 301.19502224 214.3417263 297.52331543 C214.33787778 295.76265846 214.33672465 294.00199347 214.33831215 292.24133301 C214.33868311 289.78052496 214.3260541 287.32012215 214.30981445 284.859375 C214.31229187 284.1319812 214.31476929 283.4045874 214.31732178 282.65515137 C214.27896752 279.0126142 214.1654625 276.16152925 212.03515625 273.125 C208.93532343 271.57508359 205.65809778 271.9777144 202.25585938 271.97973633 C201.45233032 271.97637772 200.64880127 271.9730191 199.82092285 271.96955872 C197.15273508 271.96002766 194.48461001 271.95810393 191.81640625 271.95703125 C189.95991998 271.95381802 188.10343397 271.9504539 186.24694824 271.94694519 C182.34626683 271.94094704 178.44560758 271.93910578 174.54492188 271.93969727 C169.56641047 271.93979844 164.58804313 271.92619597 159.60956573 271.90892506 C155.76948404 271.89775419 151.92943648 271.89577969 148.08934021 271.89630699 C146.25548307 271.89513262 144.42162488 271.89074155 142.58778381 271.88297462 C124.66500491 271.81422822 107.96105131 273.41036143 95.0078125 287.453125 Z " fill="#000000" transform="translate(267.96484375,2.875)"/>
<path d="M0 0 C3.52105032 2.94785608 5.36020364 5.53050825 6.2265625 10.08203125 C6.39175937 15.81135895 6.19036966 19.46875837 2.375 23.9375 C-1.21613178 27.57380325 -4.13780346 28.40790827 -9.1875 28.5 C-15.1757634 28.41308761 -17.65009174 26.69075383 -22.125 22.8125 C-25.14661884 18.9755237 -25.0116094 14.88439945 -24.7890625 10.1640625 C-24.07881405 5.8210679 -22.70643207 3.06868935 -19.3125 0.25 C-12.85228491 -3.70326595 -6.67750493 -3.52773845 0 0 Z " fill="#000000" transform="translate(406.3125,306.75)"/>
</svg>
